<?xml version="1.0" standalone="no"?>
<svg xmlns="http://www.w3.org/2000/svg" width="512" height="512"><path d="M512 0 H0 V512 H512 Z" fill="white"/><defs><clipPath id="clip-path-dot-color"><path d="M 15 119v 13h 13v -6.5a 6.5 6.5, 0, 0, 0, -6.5 -6.5" transform="rotate(-90,21.5,125.5)"/><path d="M 15 210v 13h 13v -6.5a 6.5 6.5, 0, 0, 0, -6.5 -6.5" transform="rotate(-90,21.5,216.5)"/><rect x="15" y="223" width="13" height="13" transform="rotate(0,21.5,229.5)"/><rect x="15" y="236" width="13" height="13" transform="rotate(0,21.5,242.5)"/><path d="M 15 249v 13h 13v -6.5a 6.5 6.5, 0, 0, 0, -6.5 -6.5" transform="rotate(90,21.5,255.5)"/><path d="M 15 288v 6.5a 6.5 6.5, 0, 0, 0, 6.5 6.5h 6.5v -6.5a 6.5 6.5, 0, 0, 0, -6.5 -6.5" transform="rotate(90,21.5,294.5)"/><path d="M 15 314v 13h 13v -6.5a 6.5 6.5, 0, 0, 0, -6.5 -6.5" transform="rotate(-90,21.5,320.5)"/><path d="M 15 340v 13h 13v -6.5a 6.5 6.5, 0, 0, 0, -6.5 -6.5" transform="rotate(-90,21.5,346.5)"/><path d="M 15 353v 13h 13v -6.5a 6.5 6.5, 0, 0, 0, -6.5 -6.5" transform="rotate(90,21.5,359.5)"/><path d="M 15 379v 13h 13v -6.5a 6.5 6.5, 0, 0, 0, -6.5 -6.5" transform="rotate(-90,21.5,385.5)"/><rect x="28" y="119" width="13" height="13" transform="rotate(0,34.5,125.5)"/><path d="M 28 145v 13h 13v -6.5a 6.5 6.5, 0, 0, 0, -6.5 -6.5" transform="rotate(-90,34.5,151.5)"/><path d="M 28 171v 13h 13v -6.5a 6.5 6.5, 0, 0, 0, -6.5 -6.5" transform="rotate(-90,34.5,177.5)"/><rect x="28" y="184" width="13" height="13" transform="rotate(0,34.5,190.5)"/><rect x="28" y="197" width="13" height="13" transform="rotate(0,34.5,203.5)"/><rect x="28" y="210" width="13" height="13" transform="rotate(0,34.5,216.5)"/><rect x="28" y="223" width="13" height="13" transform="rotate(0,34.5,229.5)"/><path d="M 28 262v 13h 13v -6.5a 6.5 6.5, 0, 0, 0, -6.5 -6.5" transform="rotate(-90,34.5,268.5)"/><path d="M 28 275v 13h 13v -6.5a 6.5 6.5, 0, 0, 0, -6.5 -6.5" transform="rotate(90,34.5,281.5)"/><rect x="28" y="314" width="13" height="13" transform="rotate(0,34.5,320.5)"/><path d="M 28 366v 13h 13v -6.5a 6.5 6.5, 0, 0, 0, -6.5 -6.5" transform="rotate(-90,34.5,372.5)"/><rect x="28" y="379" width="13" height="13" transform="rotate(0,34.5,385.5)"/><path d="M 41 119v 13h 13v -6.5a 6.5 6.5, 0, 0, 0, -6.5 -6.5" transform="rotate(90,47.5,125.5)"/><rect x="41" y="145" width="13" height="13" transform="rotate(0,47.5,151.5)"/><rect x="41" y="158" width="13" height="13" transform="rotate(0,47.5,164.5)"/><rect x="41" y="171" width="13" height="13" transform="rotate(0,47.5,177.5)"/><rect x="41" y="184" width="13" height="13" transform="rotate(0,47.5,190.5)"/><rect x="41" y="223" width="13" height="13" transform="rotate(0,47.5,229.5)"/><path d="M 41 249v 13h 13v -6.5a 6.5 6.5, 0, 0, 0, -6.5 -6.5" transform="rotate(-90,47.5,255.5)"/><rect x="41" y="262" width="13" height="13" transform="rotate(0,47.5,268.5)"/><path d="M 41 288v 13h 13v -6.5a 6.5 6.5, 0, 0, 0, -6.5 -6.5" transform="rotate(-90,47.5,294.5)"/><rect x="41" y="301" width="13" height="13" transform="rotate(0,47.5,307.5)"/><rect x="41" y="314" width="13" height="13" transform="rotate(0,47.5,320.5)"/><path d="M 41 379v 13h 13v -6.5a 6.5 6.5, 0, 0, 0, -6.5 -6.5" transform="rotate(90,47.5,385.5)"/><path d="M 54 132v 13h 13v -6.5a 6.5 6.5, 0, 0, 0, -6.5 -6.5" transform="rotate(-90,60.5,138.5)"/><rect x="54" y="145" width="13" height="13" transform="rotate(0,60.5,151.5)"/><rect x="54" y="171" width="13" height="13" transform="rotate(0,60.5,177.5)"/><path d="M 54 184v 13h 13v -6.5a 6.5 6.5, 0, 0, 0, -6.5 -6.5" transform="rotate(90,60.5,190.5)"/><path d="M 54 210v 13h 13v -6.5a 6.5 6.5, 0, 0, 0, -6.5 -6.5" transform="rotate(-90,60.5,216.5)"/><rect x="54" y="223" width="13" height="13" transform="rotate(0,60.5,229.5)"/><path d="M 54 236v 13h 13v -6.5a 6.5 6.5, 0, 0, 0, -6.5 -6.5" transform="rotate(90,60.5,242.5)"/><rect x="54" y="262" width="13" height="13" transform="rotate(0,60.5,268.5)"/><rect x="54" y="275" width="13" height="13" transform="rotate(0,60.5,281.5)"/><rect x="54" y="288" width="13" height="13" transform="rotate(0,60.5,294.5)"/><rect x="54" y="301" width="13" height="13" transform="rotate(0,60.5,307.5)"/><path d="M 54 314v 13h 13v -6.5a 6.5 6.5, 0, 0, 0, -6.5 -6.5" transform="rotate(90,60.5,320.5)"/><path d="M 54 340v 13h 13v -6.5a 6.5 6.5, 0, 0, 0, -6.5 -6.5" transform="rotate(-90,60.5,346.5)"/><rect x="54" y="353" width="13" height="13" transform="rotate(0,60.5,359.5)"/><path d="M 54 366v 13h 13v -6.5a 6.5 6.5, 0, 0, 0, -6.5 -6.5" transform="rotate(90,60.5,372.5)"/><rect x="67" y="145" width="13" height="13" transform="rotate(0,73.5,151.5)"/><path d="M 67 158v 13h 13v -6.5a 6.5 6.5, 0, 0, 0, -6.5 -6.5" transform="rotate(90,73.5,164.5)"/><path d="M 67 249v 13h 13v -6.5a 6.5 6.5, 0, 0, 0, -6.5 -6.5" transform="rotate(-90,73.5,255.5)"/><rect x="67" y="301" width="13" height="13" transform="rotate(0,73.5,307.5)"/><rect x="67" y="340" width="13" height="13" transform="rotate(0,73.5,346.5)"/><path d="M 80 119v 13h 13v -6.5a 6.5 6.5, 0, 0, 0, -6.5 -6.5" transform="rotate(-90,86.5,125.5)"/><rect x="80" y="145" width="13" height="13" transform="rotate(0,86.5,151.5)"/><path d="M 80 184v 13h 13v -6.5a 6.5 6.5, 0, 0, 0, -6.5 -6.5" transform="rotate(-90,86.5,190.5)"/><rect x="80" y="197" width="13" height="13" transform="rotate(0,86.5,203.5)"/><rect x="80" y="210" width="13" height="13" transform="rotate(0,86.5,216.5)"/><rect x="80" y="223" width="13" height="13" transform="rotate(0,86.5,229.5)"/><rect x="80" y="249" width="13" height="13" transform="rotate(0,86.5,255.5)"/><path d="M 80 262v 13h 13v -6.5a 6.5 6.5, 0, 0, 0, -6.5 -6.5" transform="rotate(90,86.5,268.5)"/><rect x="80" y="301" width="13" height="13" transform="rotate(0,86.5,307.5)"/><rect x="80" y="314" width="13" height="13" transform="rotate(0,86.5,320.5)"/><rect x="80" y="327" width="13" height="13" transform="rotate(0,86.5,333.5)"/><rect x="80" y="340" width="13" height="13" transform="rotate(0,86.5,346.5)"/><rect x="80" y="353" width="13" height="13" transform="rotate(0,86.5,359.5)"/><rect x="80" y="366" width="13" height="13" transform="rotate(0,86.5,372.5)"/><rect x="80" y="379" width="13" height="13" transform="rotate(0,86.5,385.5)"/><rect x="93" y="119" width="13" height="13" transform="rotate(0,99.5,125.5)"/><path d="M 93 145v 13h 13v -6.5a 6.5 6.5, 0, 0, 0, -6.5 -6.5" transform="rotate(90,99.5,151.5)"/><path d="M 93 171v 6.5a 6.5 6.5, 0, 0, 0, 6.5 6.5h 6.5v -6.5a 6.5 6.5, 0, 0, 0, -6.5 -6.5" transform="rotate(90,99.5,177.5)"/><rect x="93" y="197" width="13" height="13" transform="rotate(0,99.5,203.5)"/><path d="M 93 223v 13h 13v -6.5a 6.5 6.5, 0, 0, 0, -6.5 -6.5" transform="rotate(90,99.5,229.5)"/><path d="M 93 249v 13h 13v -6.5a 6.5 6.5, 0, 0, 0, -6.5 -6.5" transform="rotate(90,99.5,255.5)"/><path d="M 93 275v 13h 13v -6.5a 6.5 6.5, 0, 0, 0, -6.5 -6.5" transform="rotate(-90,99.5,281.5)"/><rect x="93" y="301" width="13" height="13" transform="rotate(0,99.5,307.5)"/><path d="M 93 327v 13h 13v -6.5a 6.5 6.5, 0, 0, 0, -6.5 -6.5" transform="rotate(90,99.5,333.5)"/><path d="M 93 353v 13h 13v -6.5a 6.5 6.5, 0, 0, 0, -6.5 -6.5" transform="rotate(90,99.5,359.5)"/><rect x="93" y="379" width="13" height="13" transform="rotate(0,99.5,385.5)"/><rect x="106" y="119" width="13" height="13" transform="rotate(0,112.5,125.5)"/><path d="M 106 132v 13h 13v -6.5a 6.5 6.5, 0, 0, 0, -6.5 -6.5" transform="rotate(90,112.5,138.5)"/><rect x="106" y="197" width="13" height="13" transform="rotate(0,112.5,203.5)"/><path d="M 106 262v 13h 13v -6.5a 6.5 6.5, 0, 0, 0, -6.5 -6.5" transform="rotate(-90,112.5,268.5)"/><path d="M 106 275v 13h 13v -6.5a 6.5 6.5, 0, 0, 0, -6.5 -6.5" transform="rotate(90,112.5,281.5)"/><path d="M 106 301v 13h 13v -6.5a 6.5 6.5, 0, 0, 0, -6.5 -6.5" transform="rotate(90,112.5,307.5)"/><path d="M 106 340v 6.5a 6.5 6.5, 0, 0, 0, 6.5 6.5h 6.5v -6.5a 6.5 6.5, 0, 0, 0, -6.5 -6.5" transform="rotate(90,112.5,346.5)"/><path d="M 106 379v 13h 13v -6.5a 6.5 6.5, 0, 0, 0, -6.5 -6.5" transform="rotate(90,112.5,385.5)"/><path d="M 119 41v 13h 13v -6.5a 6.5 6.5, 0, 0, 0, -6.5 -6.5" transform="rotate(-90,125.5,47.5)"/><rect x="119" y="54" width="13" height="13" transform="rotate(0,125.5,60.5)"/><path d="M 119 67v 13h 13v -6.5a 6.5 6.5, 0, 0, 0, -6.5 -6.5" transform="rotate(90,125.5,73.5)"/><path d="M 119 93v 6.5a 6.5 6.5, 0, 0, 0, 6.5 6.5h 6.5v -6.5a 6.5 6.5, 0, 0, 0, -6.5 -6.5" transform="rotate(90,125.5,99.5)"/><path d="M 119 119v 13h 13v -6.5a 6.5 6.5, 0, 0, 0, -6.5 -6.5" transform="rotate(90,125.5,125.5)"/><path d="M 119 171v 13h 13v -6.5a 6.5 6.5, 0, 0, 0, -6.5 -6.5" transform="rotate(-90,125.5,177.5)"/><rect x="119" y="197" width="13" height="13" transform="rotate(0,125.5,203.5)"/><rect x="119" y="210" width="13" height="13" transform="rotate(0,125.5,216.5)"/><rect x="119" y="223" width="13" height="13" transform="rotate(0,125.5,229.5)"/><rect x="119" y="236" width="13" height="13" transform="rotate(0,125.5,242.5)"/><rect x="119" y="249" width="13" height="13" transform="rotate(0,125.5,255.5)"/><path d="M 119 288v 13h 13v -6.5a 6.5 6.5, 0, 0, 0, -6.5 -6.5" transform="rotate(-90,125.5,294.5)"/><path d="M 119 314v 13h 13v -6.5a 6.5 6.5, 0, 0, 0, -6.5 -6.5" transform="rotate(-90,125.5,320.5)"/><path d="M 119 353v 6.5a 6.5 6.5, 0, 0, 0, 6.5 6.5h 6.5v -6.5a 6.5 6.5, 0, 0, 0, -6.5 -6.5" transform="rotate(90,125.5,359.5)"/><path d="M 119 392v 13h 13v -6.5a 6.5 6.5, 0, 0, 0, -6.5 -6.5" transform="rotate(-90,125.5,398.5)"/><rect x="119" y="405" width="13" height="13" transform="rotate(0,125.5,411.5)"/><path d="M 119 418v 13h 13v -6.5a 6.5 6.5, 0, 0, 0, -6.5 -6.5" transform="rotate(90,125.5,424.5)"/><path d="M 119 457v 13h 13v -6.5a 6.5 6.5, 0, 0, 0, -6.5 -6.5" transform="rotate(-90,125.5,463.5)"/><rect x="119" y="470" width="13" height="13" transform="rotate(0,125.5,476.5)"/><path d="M 119 483v 13h 13v -6.5a 6.5 6.5, 0, 0, 0, -6.5 -6.5" transform="rotate(90,125.5,489.5)"/><path d="M 132 15v 6.5a 6.5 6.5, 0, 0, 0, 6.5 6.5h 6.5v -6.5a 6.5 6.5, 0, 0, 0, -6.5 -6.5" transform="rotate(90,138.5,21.5)"/><path d="M 132 41v 13h 13v -6.5a 6.5 6.5, 0, 0, 0, -6.5 -6.5" transform="rotate(90,138.5,47.5)"/><path d="M 132 132v 13h 13v -6.5a 6.5 6.5, 0, 0, 0, -6.5 -6.5" transform="rotate(-90,138.5,138.5)"/><path d="M 132 158v 13h 13v -6.5a 6.5 6.5, 0, 0, 0, -6.5 -6.5" transform="rotate(-90,138.5,164.5)"/><path d="M 132 171v 13h 13v -6.5a 6.5 6.5, 0, 0, 0, -6.5 -6.5" transform="rotate(90,138.5,177.5)"/><path d="M 132 210v 13h 13v -6.5a 6.5 6.5, 0, 0, 0, -6.5 -6.5" transform="rotate(90,138.5,216.5)"/><rect x="132" y="236" width="13" height="13" transform="rotate(0,138.5,242.5)"/><rect x="132" y="249" width="13" height="13" transform="rotate(0,138.5,255.5)"/><rect x="132" y="262" width="13" height="13" transform="rotate(0,138.5,268.5)"/><rect x="132" y="275" width="13" height="13" transform="rotate(0,138.5,281.5)"/><rect x="132" y="288" width="13" height="13" transform="rotate(0,138.5,294.5)"/><rect x="132" y="314" width="13" height="13" transform="rotate(0,138.5,320.5)"/><path d="M 132 340v 13h 13v -6.5a 6.5 6.5, 0, 0, 0, -6.5 -6.5" transform="rotate(-90,138.5,346.5)"/><path d="M 132 366v 13h 13v -6.5a 6.5 6.5, 0, 0, 0, -6.5 -6.5" transform="rotate(-90,138.5,372.5)"/><path d="M 145 67v 13h 13v -6.5a 6.5 6.5, 0, 0, 0, -6.5 -6.5" transform="rotate(-90,151.5,73.5)"/><rect x="145" y="80" width="13" height="13" transform="rotate(0,151.5,86.5)"/><path d="M 145 93v 13h 13v -6.5a 6.5 6.5, 0, 0, 0, -6.5 -6.5" transform="rotate(90,151.5,99.5)"/><rect x="145" y="132" width="13" height="13" transform="rotate(0,151.5,138.5)"/><rect x="145" y="145" width="13" height="13" transform="rotate(0,151.5,151.5)"/><path d="M 145 158v 13h 13v -6.5a 6.5 6.5, 0, 0, 0, -6.5 -6.5" transform="rotate(90,151.5,164.5)"/><path d="M 145 184v 13h 13v -6.5a 6.5 6.5, 0, 0, 0, -6.5 -6.5" transform="rotate(-90,151.5,190.5)"/><rect x="145" y="197" width="13" height="13" transform="rotate(0,151.5,203.5)"/><path d="M 145 223v 13h 13v -6.5a 6.5 6.5, 0, 0, 0, -6.5 -6.5" transform="rotate(-90,151.5,229.5)"/><path d="M 145 236v 13h 13v -6.5a 6.5 6.5, 0, 0, 0, -6.5 -6.5" transform="rotate(90,151.5,242.5)"/><rect x="145" y="275" width="13" height="13" transform="rotate(0,151.5,281.5)"/><path d="M 145 288v 13h 13v -6.5a 6.5 6.5, 0, 0, 0, -6.5 -6.5" transform="rotate(90,151.5,294.5)"/><rect x="145" y="314" width="13" height="13" transform="rotate(0,151.5,320.5)"/><rect x="145" y="327" width="13" height="13" transform="rotate(0,151.5,333.5)"/><rect x="145" y="340" width="13" height="13" transform="rotate(0,151.5,346.5)"/><rect x="145" y="353" width="13" height="13" transform="rotate(0,151.5,359.5)"/><rect x="145" y="366" width="13" height="13" transform="rotate(0,151.5,372.5)"/><rect x="145" y="379" width="13" height="13" transform="rotate(0,151.5,385.5)"/><path d="M 145 405v 13h 13v -6.5a 6.5 6.5, 0, 0, 0, -6.5 -6.5" transform="rotate(-90,151.5,411.5)"/><path d="M 145 444v 6.5a 6.5 6.5, 0, 0, 0, 6.5 6.5h 6.5v -6.5a 6.5 6.5, 0, 0, 0, -6.5 -6.5" transform="rotate(90,151.5,450.5)"/><path d="M 145 470v 13h 13v -6.5a 6.5 6.5, 0, 0, 0, -6.5 -6.5" transform="rotate(-90,151.5,476.5)"/><path d="M 145 483v 13h 13v -6.5a 6.5 6.5, 0, 0, 0, -6.5 -6.5" transform="rotate(90,151.5,489.5)"/><path d="M 158 15v 13h 13v -6.5a 6.5 6.5, 0, 0, 0, -6.5 -6.5" transform="rotate(-90,164.5,21.5)"/><path d="M 158 41v 13h 13v -6.5a 6.5 6.5, 0, 0, 0, -6.5 -6.5" transform="rotate(-90,164.5,47.5)"/><rect x="158" y="54" width="13" height="13" transform="rotate(0,164.5,60.5)"/><rect x="158" y="67" width="13" height="13" transform="rotate(0,164.5,73.5)"/><path d="M 158 145v 13h 13v -6.5a 6.5 6.5, 0, 0, 0, -6.5 -6.5" transform="rotate(90,164.5,151.5)"/><path d="M 158 171v 13h 13v -6.5a 6.5 6.5, 0, 0, 0, -6.5 -6.5" transform="rotate(-90,164.5,177.5)"/><path d="M 158 197v 13h 13v -6.5a 6.5 6.5, 0, 0, 0, -6.5 -6.5" transform="rotate(90,164.5,203.5)"/><path d="M 158 223v 13h 13v -6.5a 6.5 6.5, 0, 0, 0, -6.5 -6.5" transform="rotate(90,164.5,229.5)"/><path d="M 158 262v 13h 13v -6.5a 6.5 6.5, 0, 0, 0, -6.5 -6.5" transform="rotate(-90,164.5,268.5)"/><path d="M 158 275v 13h 13v -6.5a 6.5 6.5, 0, 0, 0, -6.5 -6.5" transform="rotate(90,164.5,281.5)"/><path d="M 158 301v 13h 13v -6.5a 6.5 6.5, 0, 0, 0, -6.5 -6.5" transform="rotate(-90,164.5,307.5)"/><rect x="158" y="314" width="13" height="13" transform="rotate(0,164.5,320.5)"/><rect x="158" y="353" width="13" height="13" transform="rotate(0,164.5,359.5)"/><rect x="158" y="366" width="13" height="13" transform="rotate(0,164.5,372.5)"/><path d="M 158 379v 13h 13v -6.5a 6.5 6.5, 0, 0, 0, -6.5 -6.5" transform="rotate(90,164.5,385.5)"/><rect x="158" y="405" width="13" height="13" transform="rotate(0,164.5,411.5)"/><path d="M 158 418v 13h 13v -6.5a 6.5 6.5, 0, 0, 0, -6.5 -6.5" transform="rotate(90,164.5,424.5)"/><rect x="171" y="15" width="13" height="13" transform="rotate(0,177.5,21.5)"/><rect x="171" y="41" width="13" height="13" transform="rotate(0,177.5,47.5)"/><rect x="171" y="54" width="13" height="13" transform="rotate(0,177.5,60.5)"/><rect x="171" y="67" width="13" height="13" transform="rotate(0,177.5,73.5)"/><rect x="171" y="80" width="13" height="13" transform="rotate(0,177.5,86.5)"/><path d="M 171 93v 13h 13v -6.5a 6.5 6.5, 0, 0, 0, -6.5 -6.5" transform="rotate(90,177.5,99.5)"/><path d="M 171 119v 13h 13v -6.5a 6.5 6.5, 0, 0, 0, -6.5 -6.5" transform="rotate(-90,177.5,125.5)"/><rect x="171" y="132" width="13" height="13" transform="rotate(0,177.5,138.5)"/><rect x="171" y="171" width="13" height="13" transform="rotate(0,177.5,177.5)"/><path d="M 171 210v 6.5a 6.5 6.5, 0, 0, 0, 6.5 6.5h 6.5v -6.5a 6.5 6.5, 0, 0, 0, -6.5 -6.5" transform="rotate(90,177.5,216.5)"/><path d="M 171 249v 13h 13v -6.5a 6.5 6.5, 0, 0, 0, -6.5 -6.5" transform="rotate(-90,177.5,255.5)"/><path d="M 171 262v 13h 13v -6.5a 6.5 6.5, 0, 0, 0, -6.5 -6.5" transform="rotate(90,177.5,268.5)"/><path d="M 171 288v 13h 13v -6.5a 6.5 6.5, 0, 0, 0, -6.5 -6.5" transform="rotate(-90,177.5,294.5)"/><rect x="171" y="301" width="13" height="13" transform="rotate(0,177.5,307.5)"/><rect x="171" y="314" width="13" height="13" transform="rotate(0,177.5,320.5)"/><path d="M 171 340v 13h 13v -6.5a 6.5 6.5, 0, 0, 0, -6.5 -6.5" transform="rotate(-90,177.5,346.5)"/><rect x="171" y="353" width="13" height="13" transform="rotate(0,177.5,359.5)"/><path d="M 171 366v 13h 13v -6.5a 6.5 6.5, 0, 0, 0, -6.5 -6.5" transform="rotate(90,177.5,372.5)"/><path d="M 171 392v 13h 13v -6.5a 6.5 6.5, 0, 0, 0, -6.5 -6.5" transform="rotate(-90,177.5,398.5)"/><path d="M 171 405v 13h 13v -6.5a 6.5 6.5, 0, 0, 0, -6.5 -6.5" transform="rotate(90,177.5,411.5)"/><path d="M 171 431v 13h 13v -6.5a 6.5 6.5, 0, 0, 0, -6.5 -6.5" transform="rotate(-90,177.5,437.5)"/><rect x="171" y="444" width="13" height="13" transform="rotate(0,177.5,450.5)"/><rect x="171" y="457" width="13" height="13" transform="rotate(0,177.5,463.5)"/><path d="M 171 470v 13h 13v -6.5a 6.5 6.5, 0, 0, 0, -6.5 -6.5" transform="rotate(90,177.5,476.5)"/><rect x="184" y="15" width="13" height="13" transform="rotate(0,190.5,21.5)"/><rect x="184" y="28" width="13" height="13" transform="rotate(0,190.5,34.5)"/><rect x="184" y="41" width="13" height="13" transform="rotate(0,190.5,47.5)"/><rect x="184" y="54" width="13" height="13" transform="rotate(0,190.5,60.5)"/><rect x="184" y="119" width="13" height="13" transform="rotate(0,190.5,125.5)"/><rect x="184" y="132" width="13" height="13" transform="rotate(0,190.5,138.5)"/><rect x="184" y="145" width="13" height="13" transform="rotate(0,190.5,151.5)"/><rect x="184" y="171" width="13" height="13" transform="rotate(0,190.5,177.5)"/><rect x="184" y="184" width="13" height="13" transform="rotate(0,190.5,190.5)"/><path d="M 184 223v 6.5a 6.5 6.5, 0, 0, 0, 6.5 6.5h 6.5v -6.5a 6.5 6.5, 0, 0, 0, -6.5 -6.5" transform="rotate(90,190.5,229.5)"/><rect x="184" y="314" width="13" height="13" transform="rotate(0,190.5,320.5)"/><path d="M 184 353v 13h 13v -6.5a 6.5 6.5, 0, 0, 0, -6.5 -6.5" transform="rotate(90,190.5,359.5)"/><path d="M 184 379v 13h 13v -6.5a 6.5 6.5, 0, 0, 0, -6.5 -6.5" transform="rotate(-90,190.5,385.5)"/><path d="M 184 392v 13h 13v -6.5a 6.5 6.5, 0, 0, 0, -6.5 -6.5" transform="rotate(90,190.5,398.5)"/><rect x="184" y="444" width="13" height="13" transform="rotate(0,190.5,450.5)"/><path d="M 184 457v 13h 13v -6.5a 6.5 6.5, 0, 0, 0, -6.5 -6.5" transform="rotate(90,190.5,463.5)"/><rect x="197" y="28" width="13" height="13" transform="rotate(0,203.5,34.5)"/><rect x="197" y="41" width="13" height="13" transform="rotate(0,203.5,47.5)"/><rect x="197" y="54" width="13" height="13" transform="rotate(0,203.5,60.5)"/><path d="M 197 67v 13h 13v -6.5a 6.5 6.5, 0, 0, 0, -6.5 -6.5" transform="rotate(90,203.5,73.5)"/><path d="M 197 93v 13h 13v -6.5a 6.5 6.5, 0, 0, 0, -6.5 -6.5" transform="rotate(-90,203.5,99.5)"/><rect x="197" y="106" width="13" height="13" transform="rotate(0,203.5,112.5)"/><rect x="197" y="119" width="13" height="13" transform="rotate(0,203.5,125.5)"/><rect x="197" y="132" width="13" height="13" transform="rotate(0,203.5,138.5)"/><rect x="197" y="145" width="13" height="13" transform="rotate(0,203.5,151.5)"/><path d="M 197 158v 13h 13v -6.5a 6.5 6.5, 0, 0, 0, -6.5 -6.5" transform="rotate(90,203.5,164.5)"/><rect x="197" y="184" width="13" height="13" transform="rotate(0,203.5,190.5)"/><path d="M 197 197v 13h 13v -6.5a 6.5 6.5, 0, 0, 0, -6.5 -6.5" transform="rotate(90,203.5,203.5)"/><path d="M 197 236v 13h 13v -6.5a 6.5 6.5, 0, 0, 0, -6.5 -6.5" transform="rotate(-90,203.5,242.5)"/><rect x="197" y="249" width="13" height="13" transform="rotate(0,203.5,255.5)"/><path d="M 197 262v 13h 13v -6.5a 6.5 6.5, 0, 0, 0, -6.5 -6.5" transform="rotate(90,203.5,268.5)"/><path d="M 197 288v 13h 13v -6.5a 6.5 6.5, 0, 0, 0, -6.5 -6.5" transform="rotate(-90,203.5,294.5)"/><rect x="197" y="314" width="13" height="13" transform="rotate(0,203.5,320.5)"/><rect x="197" y="327" width="13" height="13" transform="rotate(0,203.5,333.5)"/><path d="M 197 340v 13h 13v -6.5a 6.5 6.5, 0, 0, 0, -6.5 -6.5" transform="rotate(90,203.5,346.5)"/><path d="M 197 366v 13h 13v -6.5a 6.5 6.5, 0, 0, 0, -6.5 -6.5" transform="rotate(-90,203.5,372.5)"/><rect x="197" y="379" width="13" height="13" transform="rotate(0,203.5,385.5)"/><path d="M 197 405v 13h 13v -6.5a 6.5 6.5, 0, 0, 0, -6.5 -6.5" transform="rotate(-90,203.5,411.5)"/><rect x="197" y="418" width="13" height="13" transform="rotate(0,203.5,424.5)"/><path d="M 197 444v 13h 13v -6.5a 6.5 6.5, 0, 0, 0, -6.5 -6.5" transform="rotate(90,203.5,450.5)"/><path d="M 197 483v 6.5a 6.5 6.5, 0, 0, 0, 6.5 6.5h 6.5v -6.5a 6.5 6.5, 0, 0, 0, -6.5 -6.5" transform="rotate(90,203.5,489.5)"/><path d="M 210 15v 13h 13v -6.5a 6.5 6.5, 0, 0, 0, -6.5 -6.5" transform="rotate(-90,216.5,21.5)"/><rect x="210" y="28" width="13" height="13" transform="rotate(0,216.5,34.5)"/><rect x="210" y="41" width="13" height="13" transform="rotate(0,216.5,47.5)"/><path d="M 210 54v 13h 13v -6.5a 6.5 6.5, 0, 0, 0, -6.5 -6.5" transform="rotate(90,216.5,60.5)"/><rect x="210" y="106" width="13" height="13" transform="rotate(0,216.5,112.5)"/><rect x="210" y="119" width="13" height="13" transform="rotate(0,216.5,125.5)"/><rect x="210" y="132" width="13" height="13" transform="rotate(0,216.5,138.5)"/><rect x="210" y="145" width="13" height="13" transform="rotate(0,216.5,151.5)"/><path d="M 210 171v 13h 13v -6.5a 6.5 6.5, 0, 0, 0, -6.5 -6.5" transform="rotate(-90,216.5,177.5)"/><path d="M 210 210v 13h 13v -6.5a 6.5 6.5, 0, 0, 0, -6.5 -6.5" transform="rotate(-90,216.5,216.5)"/><rect x="210" y="223" width="13" height="13" transform="rotate(0,216.5,229.5)"/><rect x="210" y="236" width="13" height="13" transform="rotate(0,216.5,242.5)"/><path d="M 210 275v 13h 13v -6.5a 6.5 6.5, 0, 0, 0, -6.5 -6.5" transform="rotate(-90,216.5,281.5)"/><rect x="210" y="288" width="13" height="13" transform="rotate(0,216.5,294.5)"/><path d="M 210 301v 13h 13v -6.5a 6.5 6.5, 0, 0, 0, -6.5 -6.5" transform="rotate(90,216.5,307.5)"/><rect x="210" y="327" width="13" height="13" transform="rotate(0,216.5,333.5)"/><rect x="210" y="379" width="13" height="13" transform="rotate(0,216.5,385.5)"/><rect x="210" y="392" width="13" height="13" transform="rotate(0,216.5,398.5)"/><rect x="210" y="418" width="13" height="13" transform="rotate(0,216.5,424.5)"/><rect x="210" y="431" width="13" height="13" transform="rotate(0,216.5,437.5)"/><path d="M 210 470v 13h 13v -6.5a 6.5 6.5, 0, 0, 0, -6.5 -6.5" transform="rotate(-90,216.5,476.5)"/><rect x="223" y="15" width="13" height="13" transform="rotate(0,229.5,21.5)"/><rect x="223" y="28" width="13" height="13" transform="rotate(0,229.5,34.5)"/><path d="M 223 67v 13h 13v -6.5a 6.5 6.5, 0, 0, 0, -6.5 -6.5" transform="rotate(-90,229.5,73.5)"/><path d="M 223 93v 6.5a 6.5 6.5, 0, 0, 0, 6.5 6.5h 6.5v -6.5a 6.5 6.5, 0, 0, 0, -6.5 -6.5" transform="rotate(90,229.5,99.5)"/><path d="M 223 119v 13h 13v -6.5a 6.5 6.5, 0, 0, 0, -6.5 -6.5" transform="rotate(90,229.5,125.5)"/><rect x="223" y="145" width="13" height="13" transform="rotate(0,229.5,151.5)"/><rect x="223" y="171" width="13" height="13" transform="rotate(0,229.5,177.5)"/><rect x="223" y="184" width="13" height="13" transform="rotate(0,229.5,190.5)"/><rect x="223" y="197" width="13" height="13" transform="rotate(0,229.5,203.5)"/><rect x="223" y="236" width="13" height="13" transform="rotate(0,229.5,242.5)"/><rect x="223" y="249" width="13" height="13" transform="rotate(0,229.5,255.5)"/><path d="M 223 262v 13h 13v -6.5a 6.5 6.5, 0, 0, 0, -6.5 -6.5" transform="rotate(90,229.5,268.5)"/><path d="M 223 314v 13h 13v -6.5a 6.5 6.5, 0, 0, 0, -6.5 -6.5" transform="rotate(-90,229.5,320.5)"/><rect x="223" y="327" width="13" height="13" transform="rotate(0,229.5,333.5)"/><rect x="223" y="340" width="13" height="13" transform="rotate(0,229.5,346.5)"/><path d="M 223 353v 13h 13v -6.5a 6.5 6.5, 0, 0, 0, -6.5 -6.5" transform="rotate(90,229.5,359.5)"/><rect x="223" y="392" width="13" height="13" transform="rotate(0,229.5,398.5)"/><rect x="223" y="405" width="13" height="13" transform="rotate(0,229.5,411.5)"/><rect x="223" y="418" width="13" height="13" transform="rotate(0,229.5,424.5)"/><path d="M 223 431v 13h 13v -6.5a 6.5 6.5, 0, 0, 0, -6.5 -6.5" transform="rotate(90,229.5,437.5)"/><path d="M 223 457v 13h 13v -6.5a 6.5 6.5, 0, 0, 0, -6.5 -6.5" transform="rotate(-90,229.5,463.5)"/><rect x="223" y="470" width="13" height="13" transform="rotate(0,229.5,476.5)"/><path d="M 223 483v 13h 13v -6.5a 6.5 6.5, 0, 0, 0, -6.5 -6.5" transform="rotate(90,229.5,489.5)"/><rect x="236" y="28" width="13" height="13" transform="rotate(0,242.5,34.5)"/><rect x="236" y="41" width="13" height="13" transform="rotate(0,242.5,47.5)"/><rect x="236" y="67" width="13" height="13" transform="rotate(0,242.5,73.5)"/><path d="M 236 106v 13h 13v -6.5a 6.5 6.5, 0, 0, 0, -6.5 -6.5" transform="rotate(-90,242.5,112.5)"/><path d="M 236 132v 13h 13v -6.5a 6.5 6.5, 0, 0, 0, -6.5 -6.5" transform="rotate(-90,242.5,138.5)"/><path d="M 236 145v 13h 13v -6.5a 6.5 6.5, 0, 0, 0, -6.5 -6.5" transform="rotate(90,242.5,151.5)"/><path d="M 236 171v 13h 13v -6.5a 6.5 6.5, 0, 0, 0, -6.5 -6.5" transform="rotate(90,242.5,177.5)"/><path d="M 236 197v 13h 13v -6.5a 6.5 6.5, 0, 0, 0, -6.5 -6.5" transform="rotate(90,242.5,203.5)"/><rect x="236" y="236" width="13" height="13" transform="rotate(0,242.5,242.5)"/><rect x="236" y="249" width="13" height="13" transform="rotate(0,242.5,255.5)"/><path d="M 236 288v 13h 13v -6.5a 6.5 6.5, 0, 0, 0, -6.5 -6.5" transform="rotate(-90,242.5,294.5)"/><rect x="236" y="301" width="13" height="13" transform="rotate(0,242.5,307.5)"/><path d="M 236 327v 13h 13v -6.5a 6.5 6.5, 0, 0, 0, -6.5 -6.5" transform="rotate(90,242.5,333.5)"/><path d="M 236 379v 13h 13v -6.5a 6.5 6.5, 0, 0, 0, -6.5 -6.5" transform="rotate(-90,242.5,385.5)"/><rect x="236" y="392" width="13" height="13" transform="rotate(0,242.5,398.5)"/><path d="M 236 418v 13h 13v -6.5a 6.5 6.5, 0, 0, 0, -6.5 -6.5" transform="rotate(90,242.5,424.5)"/><rect x="236" y="457" width="13" height="13" transform="rotate(0,242.5,463.5)"/><rect x="249" y="28" width="13" height="13" transform="rotate(0,255.5,34.5)"/><path d="M 249 41v 13h 13v -6.5a 6.5 6.5, 0, 0, 0, -6.5 -6.5" transform="rotate(90,255.5,47.5)"/><rect x="249" y="67" width="13" height="13" transform="rotate(0,255.5,73.5)"/><path d="M 249 93v 13h 13v -6.5a 6.5 6.5, 0, 0, 0, -6.5 -6.5" transform="rotate(-90,255.5,99.5)"/><rect x="249" y="106" width="13" height="13" transform="rotate(0,255.5,112.5)"/><rect x="249" y="119" width="13" height="13" transform="rotate(0,255.5,125.5)"/><rect x="249" y="132" width="13" height="13" transform="rotate(0,255.5,138.5)"/><path d="M 249 184v 13h 13v -6.5a 6.5 6.5, 0, 0, 0, -6.5 -6.5" transform="rotate(-90,255.5,190.5)"/><rect x="249" y="236" width="13" height="13" transform="rotate(0,255.5,242.5)"/><rect x="249" y="249" width="13" height="13" transform="rotate(0,255.5,255.5)"/><path d="M 249 275v 13h 13v -6.5a 6.5 6.5, 0, 0, 0, -6.5 -6.5" transform="rotate(-90,255.5,281.5)"/><rect x="249" y="288" width="13" height="13" transform="rotate(0,255.5,294.5)"/><rect x="249" y="301" width="13" height="13" transform="rotate(0,255.5,307.5)"/><path d="M 249 366v 13h 13v -6.5a 6.5 6.5, 0, 0, 0, -6.5 -6.5" transform="rotate(-90,255.5,372.5)"/><rect x="249" y="379" width="13" height="13" transform="rotate(0,255.5,385.5)"/><rect x="249" y="392" width="13" height="13" transform="rotate(0,255.5,398.5)"/><path d="M 249 431v 13h 13v -6.5a 6.5 6.5, 0, 0, 0, -6.5 -6.5" transform="rotate(-90,255.5,437.5)"/><rect x="249" y="444" width="13" height="13" transform="rotate(0,255.5,450.5)"/><rect x="249" y="457" width="13" height="13" transform="rotate(0,255.5,463.5)"/><rect x="249" y="470" width="13" height="13" transform="rotate(0,255.5,476.5)"/><rect x="249" y="483" width="13" height="13" transform="rotate(0,255.5,489.5)"/><path d="M 262 15v 6.5a 6.5 6.5, 0, 0, 0, 6.5 6.5h 6.5v -6.5a 6.5 6.5, 0, 0, 0, -6.5 -6.5" transform="rotate(90,268.5,21.5)"/><path d="M 262 54v 13h 13v -6.5a 6.5 6.5, 0, 0, 0, -6.5 -6.5" transform="rotate(-90,268.5,60.5)"/><rect x="262" y="67" width="13" height="13" transform="rotate(0,268.5,73.5)"/><rect x="262" y="119" width="13" height="13" transform="rotate(0,268.5,125.5)"/><rect x="262" y="132" width="13" height="13" transform="rotate(0,268.5,138.5)"/><rect x="262" y="145" width="13" height="13" transform="rotate(0,268.5,151.5)"/><path d="M 262 158v 13h 13v -6.5a 6.5 6.5, 0, 0, 0, -6.5 -6.5" transform="rotate(90,268.5,164.5)"/><path d="M 262 184v 13h 13v -6.5a 6.5 6.5, 0, 0, 0, -6.5 -6.5" transform="rotate(90,268.5,190.5)"/><path d="M 262 210v 13h 13v -6.5a 6.5 6.5, 0, 0, 0, -6.5 -6.5" transform="rotate(-90,268.5,216.5)"/><rect x="262" y="223" width="13" height="13" transform="rotate(0,268.5,229.5)"/><rect x="262" y="236" width="13" height="13" transform="rotate(0,268.5,242.5)"/><rect x="262" y="249" width="13" height="13" transform="rotate(0,268.5,255.5)"/><rect x="262" y="262" width="13" height="13" transform="rotate(0,268.5,268.5)"/><rect x="262" y="288" width="13" height="13" transform="rotate(0,268.5,294.5)"/><path d="M 262 301v 13h 13v -6.5a 6.5 6.5, 0, 0, 0, -6.5 -6.5" transform="rotate(90,268.5,307.5)"/><path d="M 262 327v 6.5a 6.5 6.5, 0, 0, 0, 6.5 6.5h 6.5v -6.5a 6.5 6.5, 0, 0, 0, -6.5 -6.5" transform="rotate(90,268.5,333.5)"/><path d="M 262 353v 13h 13v -6.5a 6.5 6.5, 0, 0, 0, -6.5 -6.5" transform="rotate(-90,268.5,359.5)"/><rect x="262" y="366" width="13" height="13" transform="rotate(0,268.5,372.5)"/><rect x="262" y="392" width="13" height="13" transform="rotate(0,268.5,398.5)"/><path d="M 262 418v 13h 13v -6.5a 6.5 6.5, 0, 0, 0, -6.5 -6.5" transform="rotate(-90,268.5,424.5)"/><rect x="262" y="431" width="13" height="13" transform="rotate(0,268.5,437.5)"/><path d="M 262 483v 13h 13v -6.5a 6.5 6.5, 0, 0, 0, -6.5 -6.5" transform="rotate(90,268.5,489.5)"/><path d="M 275 41v 6.5a 6.5 6.5, 0, 0, 0, 6.5 6.5h 6.5v -6.5a 6.5 6.5, 0, 0, 0, -6.5 -6.5" transform="rotate(90,281.5,47.5)"/><rect x="275" y="67" width="13" height="13" transform="rotate(0,281.5,73.5)"/><path d="M 275 93v 6.5a 6.5 6.5, 0, 0, 0, 6.5 6.5h 6.5v -6.5a 6.5 6.5, 0, 0, 0, -6.5 -6.5" transform="rotate(90,281.5,99.5)"/><path d="M 275 132v 13h 13v -6.5a 6.5 6.5, 0, 0, 0, -6.5 -6.5" transform="rotate(90,281.5,138.5)"/><path d="M 275 171v 6.5a 6.5 6.5, 0, 0, 0, 6.5 6.5h 6.5v -6.5a 6.5 6.5, 0, 0, 0, -6.5 -6.5" transform="rotate(90,281.5,177.5)"/><path d="M 275 262v 13h 13v -6.5a 6.5 6.5, 0, 0, 0, -6.5 -6.5" transform="rotate(90,281.5,268.5)"/><path d="M 275 314v 6.5a 6.5 6.5, 0, 0, 0, 6.5 6.5h 6.5v -6.5a 6.5 6.5, 0, 0, 0, -6.5 -6.5" transform="rotate(90,281.5,320.5)"/><path d="M 275 340v 13h 13v -6.5a 6.5 6.5, 0, 0, 0, -6.5 -6.5" transform="rotate(-90,281.5,346.5)"/><rect x="275" y="353" width="13" height="13" transform="rotate(0,281.5,359.5)"/><path d="M 275 366v 13h 13v -6.5a 6.5 6.5, 0, 0, 0, -6.5 -6.5" transform="rotate(90,281.5,372.5)"/><rect x="275" y="392" width="13" height="13" transform="rotate(0,281.5,398.5)"/><rect x="275" y="405" width="13" height="13" transform="rotate(0,281.5,411.5)"/><rect x="275" y="418" width="13" height="13" transform="rotate(0,281.5,424.5)"/><rect x="275" y="431" width="13" height="13" transform="rotate(0,281.5,437.5)"/><rect x="275" y="444" width="13" height="13" transform="rotate(0,281.5,450.5)"/><path d="M 275 457v 13h 13v -6.5a 6.5 6.5, 0, 0, 0, -6.5 -6.5" transform="rotate(90,281.5,463.5)"/><rect x="288" y="67" width="13" height="13" transform="rotate(0,294.5,73.5)"/><path d="M 288 106v 13h 13v -6.5a 6.5 6.5, 0, 0, 0, -6.5 -6.5" transform="rotate(-90,294.5,112.5)"/><rect x="288" y="119" width="13" height="13" transform="rotate(0,294.5,125.5)"/><path d="M 288 158v 13h 13v -6.5a 6.5 6.5, 0, 0, 0, -6.5 -6.5" transform="rotate(-90,294.5,164.5)"/><path d="M 288 210v 13h 13v -6.5a 6.5 6.5, 0, 0, 0, -6.5 -6.5" transform="rotate(-90,294.5,216.5)"/><path d="M 288 236v 13h 13v -6.5a 6.5 6.5, 0, 0, 0, -6.5 -6.5" transform="rotate(-90,294.5,242.5)"/><path d="M 288 275v 13h 13v -6.5a 6.5 6.5, 0, 0, 0, -6.5 -6.5" transform="rotate(-90,294.5,281.5)"/><path d="M 288 301v 13h 13v -6.5a 6.5 6.5, 0, 0, 0, -6.5 -6.5" transform="rotate(-90,294.5,307.5)"/><path d="M 288 327v 13h 13v -6.5a 6.5 6.5, 0, 0, 0, -6.5 -6.5" transform="rotate(-90,294.5,333.5)"/><path d="M 288 418v 13h 13v -6.5a 6.5 6.5, 0, 0, 0, -6.5 -6.5" transform="rotate(90,294.5,424.5)"/><path d="M 288 444v 13h 13v -6.5a 6.5 6.5, 0, 0, 0, -6.5 -6.5" transform="rotate(90,294.5,450.5)"/><path d="M 288 470v 13h 13v -6.5a 6.5 6.5, 0, 0, 0, -6.5 -6.5" transform="rotate(-90,294.5,476.5)"/><path d="M 301 28v 13h 13v -6.5a 6.5 6.5, 0, 0, 0, -6.5 -6.5" transform="rotate(-90,307.5,34.5)"/><rect x="301" y="41" width="13" height="13" transform="rotate(0,307.5,47.5)"/><rect x="301" y="67" width="13" height="13" transform="rotate(0,307.5,73.5)"/><path d="M 301 93v 13h 13v -6.5a 6.5 6.5, 0, 0, 0, -6.5 -6.5" transform="rotate(-90,307.5,99.5)"/><rect x="301" y="106" width="13" height="13" transform="rotate(0,307.5,112.5)"/><path d="M 301 119v 13h 13v -6.5a 6.5 6.5, 0, 0, 0, -6.5 -6.5" transform="rotate(90,307.5,125.5)"/><rect x="301" y="158" width="13" height="13" transform="rotate(0,307.5,164.5)"/><rect x="301" y="171" width="13" height="13" transform="rotate(0,307.5,177.5)"/><rect x="301" y="184" width="13" height="13" transform="rotate(0,307.5,190.5)"/><rect x="301" y="197" width="13" height="13" transform="rotate(0,307.5,203.5)"/><rect x="301" y="210" width="13" height="13" transform="rotate(0,307.5,216.5)"/><rect x="301" y="236" width="13" height="13" transform="rotate(0,307.5,242.5)"/><rect x="301" y="249" width="13" height="13" transform="rotate(0,307.5,255.5)"/><rect x="301" y="275" width="13" height="13" transform="rotate(0,307.5,281.5)"/><rect x="301" y="301" width="13" height="13" transform="rotate(0,307.5,307.5)"/><rect x="301" y="314" width="13" height="13" transform="rotate(0,307.5,320.5)"/><rect x="301" y="327" width="13" height="13" transform="rotate(0,307.5,333.5)"/><path d="M 301 366v 6.5a 6.5 6.5, 0, 0, 0, 6.5 6.5h 6.5v -6.5a 6.5 6.5, 0, 0, 0, -6.5 -6.5" transform="rotate(90,307.5,372.5)"/><path d="M 301 392v 6.5a 6.5 6.5, 0, 0, 0, 6.5 6.5h 6.5v -6.5a 6.5 6.5, 0, 0, 0, -6.5 -6.5" transform="rotate(90,307.5,398.5)"/><path d="M 301 457v 13h 13v -6.5a 6.5 6.5, 0, 0, 0, -6.5 -6.5" transform="rotate(-90,307.5,463.5)"/><rect x="301" y="470" width="13" height="13" transform="rotate(0,307.5,476.5)"/><path d="M 301 483v 13h 13v -6.5a 6.5 6.5, 0, 0, 0, -6.5 -6.5" transform="rotate(90,307.5,489.5)"/><path d="M 314 15v 13h 13v -6.5a 6.5 6.5, 0, 0, 0, -6.5 -6.5" transform="rotate(-90,320.5,21.5)"/><path d="M 314 41v 13h 13v -6.5a 6.5 6.5, 0, 0, 0, -6.5 -6.5" transform="rotate(90,320.5,47.5)"/><rect x="314" y="67" width="13" height="13" transform="rotate(0,320.5,73.5)"/><path d="M 314 132v 13h 13v -6.5a 6.5 6.5, 0, 0, 0, -6.5 -6.5" transform="rotate(-90,320.5,138.5)"/><rect x="314" y="158" width="13" height="13" transform="rotate(0,320.5,164.5)"/><rect x="314" y="171" width="13" height="13" transform="rotate(0,320.5,177.5)"/><rect x="314" y="184" width="13" height="13" transform="rotate(0,320.5,190.5)"/><rect x="314" y="197" width="13" height="13" transform="rotate(0,320.5,203.5)"/><path d="M 314 210v 13h 13v -6.5a 6.5 6.5, 0, 0, 0, -6.5 -6.5" transform="rotate(90,320.5,216.5)"/><rect x="314" y="249" width="13" height="13" transform="rotate(0,320.5,255.5)"/><rect x="314" y="262" width="13" height="13" transform="rotate(0,320.5,268.5)"/><rect x="314" y="275" width="13" height="13" transform="rotate(0,320.5,281.5)"/><path d="M 314 327v 13h 13v -6.5a 6.5 6.5, 0, 0, 0, -6.5 -6.5" transform="rotate(90,320.5,333.5)"/><path d="M 314 353v 6.5a 6.5 6.5, 0, 0, 0, 6.5 6.5h 6.5v -6.5a 6.5 6.5, 0, 0, 0, -6.5 -6.5" transform="rotate(90,320.5,359.5)"/><path d="M 314 418v 13h 13v -6.5a 6.5 6.5, 0, 0, 0, -6.5 -6.5" transform="rotate(-90,320.5,424.5)"/><path d="M 314 470v 13h 13v -6.5a 6.5 6.5, 0, 0, 0, -6.5 -6.5" transform="rotate(90,320.5,476.5)"/><rect x="327" y="15" width="13" height="13" transform="rotate(0,333.5,21.5)"/><path d="M 327 28v 13h 13v -6.5a 6.5 6.5, 0, 0, 0, -6.5 -6.5" transform="rotate(90,333.5,34.5)"/><path d="M 327 67v 13h 13v -6.5a 6.5 6.5, 0, 0, 0, -6.5 -6.5" transform="rotate(90,333.5,73.5)"/><path d="M 327 93v 13h 13v -6.5a 6.5 6.5, 0, 0, 0, -6.5 -6.5" transform="rotate(-90,333.5,99.5)"/><path d="M 327 106v 13h 13v -6.5a 6.5 6.5, 0, 0, 0, -6.5 -6.5" transform="rotate(90,333.5,112.5)"/><rect x="327" y="132" width="13" height="13" transform="rotate(0,333.5,138.5)"/><rect x="327" y="158" width="13" height="13" transform="rotate(0,333.5,164.5)"/><rect x="327" y="171" width="13" height="13" transform="rotate(0,333.5,177.5)"/><rect x="327" y="184" width="13" height="13" transform="rotate(0,333.5,190.5)"/><path d="M 327 197v 13h 13v -6.5a 6.5 6.5, 0, 0, 0, -6.5 -6.5" transform="rotate(90,333.5,203.5)"/><path d="M 327 236v 6.5a 6.5 6.5, 0, 0, 0, 6.5 6.5h 6.5v -6.5a 6.5 6.5, 0, 0, 0, -6.5 -6.5" transform="rotate(90,333.5,242.5)"/><rect x="327" y="275" width="13" height="13" transform="rotate(0,333.5,281.5)"/><rect x="327" y="288" width="13" height="13" transform="rotate(0,333.5,294.5)"/><path d="M 327 301v 13h 13v -6.5a 6.5 6.5, 0, 0, 0, -6.5 -6.5" transform="rotate(90,333.5,307.5)"/><path d="M 327 392v 13h 13v -6.5a 6.5 6.5, 0, 0, 0, -6.5 -6.5" transform="rotate(-90,333.5,398.5)"/><rect x="327" y="405" width="13" height="13" transform="rotate(0,333.5,411.5)"/><rect x="327" y="418" width="13" height="13" transform="rotate(0,333.5,424.5)"/><rect x="327" y="431" width="13" height="13" transform="rotate(0,333.5,437.5)"/><rect x="327" y="444" width="13" height="13" transform="rotate(0,333.5,450.5)"/><path d="M 327 457v 13h 13v -6.5a 6.5 6.5, 0, 0, 0, -6.5 -6.5" transform="rotate(90,333.5,463.5)"/><path d="M 327 483v 6.5a 6.5 6.5, 0, 0, 0, 6.5 6.5h 6.5v -6.5a 6.5 6.5, 0, 0, 0, -6.5 -6.5" transform="rotate(90,333.5,489.5)"/><rect x="340" y="15" width="13" height="13" transform="rotate(0,346.5,21.5)"/><path d="M 340 80v 6.5a 6.5 6.5, 0, 0, 0, 6.5 6.5h 6.5v -6.5a 6.5 6.5, 0, 0, 0, -6.5 -6.5" transform="rotate(90,346.5,86.5)"/><rect x="340" y="132" width="13" height="13" transform="rotate(0,346.5,138.5)"/><path d="M 340 145v 13h 13v -6.5a 6.5 6.5, 0, 0, 0, -6.5 -6.5" transform="rotate(90,346.5,151.5)"/><rect x="340" y="171" width="13" height="13" transform="rotate(0,346.5,177.5)"/><path d="M 340 210v 13h 13v -6.5a 6.5 6.5, 0, 0, 0, -6.5 -6.5" transform="rotate(-90,346.5,216.5)"/><rect x="340" y="223" width="13" height="13" transform="rotate(0,346.5,229.5)"/><path d="M 340 249v 6.5a 6.5 6.5, 0, 0, 0, 6.5 6.5h 6.5v -6.5a 6.5 6.5, 0, 0, 0, -6.5 -6.5" transform="rotate(90,346.5,255.5)"/><rect x="340" y="275" width="13" height="13" transform="rotate(0,346.5,281.5)"/><path d="M 340 288v 13h 13v -6.5a 6.5 6.5, 0, 0, 0, -6.5 -6.5" transform="rotate(90,346.5,294.5)"/><path d="M 340 327v 6.5a 6.5 6.5, 0, 0, 0, 6.5 6.5h 6.5v -6.5a 6.5 6.5, 0, 0, 0, -6.5 -6.5" transform="rotate(90,346.5,333.5)"/><path d="M 340 353v 13h 13v -6.5a 6.5 6.5, 0, 0, 0, -6.5 -6.5" transform="rotate(-90,346.5,359.5)"/><path d="M 340 379v 6.5a 6.5 6.5, 0, 0, 0, 6.5 6.5h 6.5v -6.5a 6.5 6.5, 0, 0, 0, -6.5 -6.5" transform="rotate(90,346.5,385.5)"/><path d="M 340 418v 13h 13v -6.5a 6.5 6.5, 0, 0, 0, -6.5 -6.5" transform="rotate(90,346.5,424.5)"/><path d="M 340 444v 13h 13v -6.5a 6.5 6.5, 0, 0, 0, -6.5 -6.5" transform="rotate(90,346.5,450.5)"/><rect x="353" y="15" width="13" height="13" transform="rotate(0,359.5,21.5)"/><path d="M 353 93v 6.5a 6.5 6.5, 0, 0, 0, 6.5 6.5h 6.5v -6.5a 6.5 6.5, 0, 0, 0, -6.5 -6.5" transform="rotate(90,359.5,99.5)"/><path d="M 353 132v 13h 13v -6.5a 6.5 6.5, 0, 0, 0, -6.5 -6.5" transform="rotate(90,359.5,138.5)"/><path d="M 353 158v 13h 13v -6.5a 6.5 6.5, 0, 0, 0, -6.5 -6.5" transform="rotate(-90,359.5,164.5)"/><path d="M 353 171v 13h 13v -6.5a 6.5 6.5, 0, 0, 0, -6.5 -6.5" transform="rotate(90,359.5,177.5)"/><rect x="353" y="223" width="13" height="13" transform="rotate(0,359.5,229.5)"/><rect x="353" y="236" width="13" height="13" transform="rotate(0,359.5,242.5)"/><path d="M 353 340v 13h 13v -6.5a 6.5 6.5, 0, 0, 0, -6.5 -6.5" transform="rotate(-90,359.5,346.5)"/><rect x="353" y="353" width="13" height="13" transform="rotate(0,359.5,359.5)"/><rect x="353" y="366" width="13" height="13" transform="rotate(0,359.5,372.5)"/><path d="M 353 405v 6.5a 6.5 6.5, 0, 0, 0, 6.5 6.5h 6.5v -6.5a 6.5 6.5, 0, 0, 0, -6.5 -6.5" transform="rotate(90,359.5,411.5)"/><path d="M 353 483v 13h 13v -6.5a 6.5 6.5, 0, 0, 0, -6.5 -6.5" transform="rotate(-90,359.5,489.5)"/><rect x="366" y="15" width="13" height="13" transform="rotate(0,372.5,21.5)"/><path d="M 366 41v 13h 13v -6.5a 6.5 6.5, 0, 0, 0, -6.5 -6.5" transform="rotate(-90,372.5,47.5)"/><path d="M 366 54v 13h 13v -6.5a 6.5 6.5, 0, 0, 0, -6.5 -6.5" transform="rotate(90,372.5,60.5)"/><path d="M 366 119v 13h 13v -6.5a 6.5 6.5, 0, 0, 0, -6.5 -6.5" transform="rotate(-90,372.5,125.5)"/><path d="M 366 145v 6.5a 6.5 6.5, 0, 0, 0, 6.5 6.5h 6.5v -6.5a 6.5 6.5, 0, 0, 0, -6.5 -6.5" transform="rotate(90,372.5,151.5)"/><path d="M 366 210v 13h 13v -6.5a 6.5 6.5, 0, 0, 0, -6.5 -6.5" transform="rotate(-90,372.5,216.5)"/><rect x="366" y="223" width="13" height="13" transform="rotate(0,372.5,229.5)"/><rect x="366" y="236" width="13" height="13" transform="rotate(0,372.5,242.5)"/><rect x="366" y="249" width="13" height="13" transform="rotate(0,372.5,255.5)"/><path d="M 366 275v 6.5a 6.5 6.5, 0, 0, 0, 6.5 6.5h 6.5v -6.5a 6.5 6.5, 0, 0, 0, -6.5 -6.5" transform="rotate(90,372.5,281.5)"/><path d="M 366 301v 6.5a 6.5 6.5, 0, 0, 0, 6.5 6.5h 6.5v -6.5a 6.5 6.5, 0, 0, 0, -6.5 -6.5" transform="rotate(90,372.5,307.5)"/><path d="M 366 327v 6.5a 6.5 6.5, 0, 0, 0, 6.5 6.5h 6.5v -6.5a 6.5 6.5, 0, 0, 0, -6.5 -6.5" transform="rotate(90,372.5,333.5)"/><rect x="366" y="353" width="13" height="13" transform="rotate(0,372.5,359.5)"/><rect x="366" y="366" width="13" height="13" transform="rotate(0,372.5,372.5)"/><rect x="366" y="379" width="13" height="13" transform="rotate(0,372.5,385.5)"/><rect x="366" y="392" width="13" height="13" transform="rotate(0,372.5,398.5)"/><path d="M 366 418v 13h 13v -6.5a 6.5 6.5, 0, 0, 0, -6.5 -6.5" transform="rotate(-90,372.5,424.5)"/><path d="M 366 470v 13h 13v -6.5a 6.5 6.5, 0, 0, 0, -6.5 -6.5" transform="rotate(-90,372.5,476.5)"/><path d="M 366 483v 13h 13v -6.5a 6.5 6.5, 0, 0, 0, -6.5 -6.5" transform="rotate(90,372.5,489.5)"/><path d="M 379 15v 13h 13v -6.5a 6.5 6.5, 0, 0, 0, -6.5 -6.5" transform="rotate(90,385.5,21.5)"/><path d="M 379 41v 13h 13v -6.5a 6.5 6.5, 0, 0, 0, -6.5 -6.5" transform="rotate(90,385.5,47.5)"/><path d="M 379 67v 6.5a 6.5 6.5, 0, 0, 0, 6.5 6.5h 6.5v -6.5a 6.5 6.5, 0, 0, 0, -6.5 -6.5" transform="rotate(90,385.5,73.5)"/><path d="M 379 93v 13h 13v -6.5a 6.5 6.5, 0, 0, 0, -6.5 -6.5" transform="rotate(-90,385.5,99.5)"/><rect x="379" y="106" width="13" height="13" transform="rotate(0,385.5,112.5)"/><rect x="379" y="119" width="13" height="13" transform="rotate(0,385.5,125.5)"/><path d="M 379 171v 13h 13v -6.5a 6.5 6.5, 0, 0, 0, -6.5 -6.5" transform="rotate(-90,385.5,177.5)"/><rect x="379" y="184" width="13" height="13" transform="rotate(0,385.5,190.5)"/><rect x="379" y="223" width="13" height="13" transform="rotate(0,385.5,229.5)"/><path d="M 379 249v 13h 13v -6.5a 6.5 6.5, 0, 0, 0, -6.5 -6.5" transform="rotate(90,385.5,255.5)"/><path d="M 379 340v 13h 13v -6.5a 6.5 6.5, 0, 0, 0, -6.5 -6.5" transform="rotate(-90,385.5,346.5)"/><rect x="379" y="353" width="13" height="13" transform="rotate(0,385.5,359.5)"/><rect x="379" y="366" width="13" height="13" transform="rotate(0,385.5,372.5)"/><rect x="379" y="379" width="13" height="13" transform="rotate(0,385.5,385.5)"/><rect x="379" y="392" width="13" height="13" transform="rotate(0,385.5,398.5)"/><rect x="379" y="405" width="13" height="13" transform="rotate(0,385.5,411.5)"/><rect x="379" y="418" width="13" height="13" transform="rotate(0,385.5,424.5)"/><rect x="379" y="431" width="13" height="13" transform="rotate(0,385.5,437.5)"/><rect x="379" y="444" width="13" height="13" transform="rotate(0,385.5,450.5)"/><rect x="379" y="457" width="13" height="13" transform="rotate(0,385.5,463.5)"/><rect x="379" y="470" width="13" height="13" transform="rotate(0,385.5,476.5)"/><rect x="392" y="119" width="13" height="13" transform="rotate(0,398.5,125.5)"/><path d="M 392 132v 13h 13v -6.5a 6.5 6.5, 0, 0, 0, -6.5 -6.5" transform="rotate(90,398.5,138.5)"/><path d="M 392 158v 6.5a 6.5 6.5, 0, 0, 0, 6.5 6.5h 6.5v -6.5a 6.5 6.5, 0, 0, 0, -6.5 -6.5" transform="rotate(90,398.5,164.5)"/><rect x="392" y="184" width="13" height="13" transform="rotate(0,398.5,190.5)"/><rect x="392" y="197" width="13" height="13" transform="rotate(0,398.5,203.5)"/><rect x="392" y="210" width="13" height="13" transform="rotate(0,398.5,216.5)"/><rect x="392" y="223" width="13" height="13" transform="rotate(0,398.5,229.5)"/><path d="M 392 262v 6.5a 6.5 6.5, 0, 0, 0, 6.5 6.5h 6.5v -6.5a 6.5 6.5, 0, 0, 0, -6.5 -6.5" transform="rotate(90,398.5,268.5)"/><path d="M 392 301v 13h 13v -6.5a 6.5 6.5, 0, 0, 0, -6.5 -6.5" transform="rotate(-90,398.5,307.5)"/><path d="M 392 314v 13h 13v -6.5a 6.5 6.5, 0, 0, 0, -6.5 -6.5" transform="rotate(90,398.5,320.5)"/><rect x="392" y="353" width="13" height="13" transform="rotate(0,398.5,359.5)"/><rect x="392" y="366" width="13" height="13" transform="rotate(0,398.5,372.5)"/><rect x="392" y="379" width="13" height="13" transform="rotate(0,398.5,385.5)"/><rect x="392" y="431" width="13" height="13" transform="rotate(0,398.5,437.5)"/><rect x="392" y="470" width="13" height="13" transform="rotate(0,398.5,476.5)"/><path d="M 405 145v 6.5a 6.5 6.5, 0, 0, 0, 6.5 6.5h 6.5v -6.5a 6.5 6.5, 0, 0, 0, -6.5 -6.5" transform="rotate(90,411.5,151.5)"/><rect x="405" y="223" width="13" height="13" transform="rotate(0,411.5,229.5)"/><rect x="405" y="236" width="13" height="13" transform="rotate(0,411.5,242.5)"/><path d="M 405 249v 13h 13v -6.5a 6.5 6.5, 0, 0, 0, -6.5 -6.5" transform="rotate(90,411.5,255.5)"/><path d="M 405 288v 13h 13v -6.5a 6.5 6.5, 0, 0, 0, -6.5 -6.5" transform="rotate(-90,411.5,294.5)"/><rect x="405" y="301" width="13" height="13" transform="rotate(0,411.5,307.5)"/><path d="M 405 327v 6.5a 6.5 6.5, 0, 0, 0, 6.5 6.5h 6.5v -6.5a 6.5 6.5, 0, 0, 0, -6.5 -6.5" transform="rotate(90,411.5,333.5)"/><rect x="405" y="379" width="13" height="13" transform="rotate(0,411.5,385.5)"/><path d="M 405 405v 6.5a 6.5 6.5, 0, 0, 0, 6.5 6.5h 6.5v -6.5a 6.5 6.5, 0, 0, 0, -6.5 -6.5" transform="rotate(90,411.5,411.5)"/><rect x="405" y="431" width="13" height="13" transform="rotate(0,411.5,437.5)"/><path d="M 405 444v 13h 13v -6.5a 6.5 6.5, 0, 0, 0, -6.5 -6.5" transform="rotate(90,411.5,450.5)"/><rect x="405" y="470" width="13" height="13" transform="rotate(0,411.5,476.5)"/><path d="M 405 483v 13h 13v -6.5a 6.5 6.5, 0, 0, 0, -6.5 -6.5" transform="rotate(90,411.5,489.5)"/><path d="M 418 132v 13h 13v -6.5a 6.5 6.5, 0, 0, 0, -6.5 -6.5" transform="rotate(-90,424.5,138.5)"/><path d="M 418 158v 13h 13v -6.5a 6.5 6.5, 0, 0, 0, -6.5 -6.5" transform="rotate(-90,424.5,164.5)"/><path d="M 418 184v 13h 13v -6.5a 6.5 6.5, 0, 0, 0, -6.5 -6.5" transform="rotate(-90,424.5,190.5)"/><path d="M 418 210v 13h 13v -6.5a 6.5 6.5, 0, 0, 0, -6.5 -6.5" transform="rotate(-90,424.5,216.5)"/><rect x="418" y="223" width="13" height="13" transform="rotate(0,424.5,229.5)"/><path d="M 418 262v 13h 13v -6.5a 6.5 6.5, 0, 0, 0, -6.5 -6.5" transform="rotate(-90,424.5,268.5)"/><rect x="418" y="288" width="13" height="13" transform="rotate(0,424.5,294.5)"/><rect x="418" y="301" width="13" height="13" transform="rotate(0,424.5,307.5)"/><rect x="418" y="314" width="13" height="13" transform="rotate(0,424.5,320.5)"/><path d="M 418 353v 13h 13v -6.5a 6.5 6.5, 0, 0, 0, -6.5 -6.5" transform="rotate(-90,424.5,359.5)"/><rect x="418" y="379" width="13" height="13" transform="rotate(0,424.5,385.5)"/><rect x="418" y="431" width="13" height="13" transform="rotate(0,424.5,437.5)"/><rect x="418" y="470" width="13" height="13" transform="rotate(0,424.5,476.5)"/><path d="M 431 119v 13h 13v -6.5a 6.5 6.5, 0, 0, 0, -6.5 -6.5" transform="rotate(-90,437.5,125.5)"/><rect x="431" y="132" width="13" height="13" transform="rotate(0,437.5,138.5)"/><path d="M 431 158v 13h 13v -6.5a 6.5 6.5, 0, 0, 0, -6.5 -6.5" transform="rotate(90,437.5,164.5)"/><rect x="431" y="184" width="13" height="13" transform="rotate(0,437.5,190.5)"/><path d="M 431 223v 13h 13v -6.5a 6.5 6.5, 0, 0, 0, -6.5 -6.5" transform="rotate(90,437.5,229.5)"/><path d="M 431 249v 13h 13v -6.5a 6.5 6.5, 0, 0, 0, -6.5 -6.5" transform="rotate(-90,437.5,255.5)"/><path d="M 431 262v 13h 13v -6.5a 6.5 6.5, 0, 0, 0, -6.5 -6.5" transform="rotate(90,437.5,268.5)"/><rect x="431" y="314" width="13" height="13" transform="rotate(0,437.5,320.5)"/><rect x="431" y="327" width="13" height="13" transform="rotate(0,437.5,333.5)"/><rect x="431" y="340" width="13" height="13" transform="rotate(0,437.5,346.5)"/><rect x="431" y="353" width="13" height="13" transform="rotate(0,437.5,359.5)"/><rect x="431" y="366" width="13" height="13" transform="rotate(0,437.5,372.5)"/><rect x="431" y="379" width="13" height="13" transform="rotate(0,437.5,385.5)"/><rect x="431" y="392" width="13" height="13" transform="rotate(0,437.5,398.5)"/><rect x="431" y="405" width="13" height="13" transform="rotate(0,437.5,411.5)"/><rect x="431" y="418" width="13" height="13" transform="rotate(0,437.5,424.5)"/><rect x="431" y="431" width="13" height="13" transform="rotate(0,437.5,437.5)"/><path d="M 431 457v 13h 13v -6.5a 6.5 6.5, 0, 0, 0, -6.5 -6.5" transform="rotate(-90,437.5,463.5)"/><rect x="431" y="470" width="13" height="13" transform="rotate(0,437.5,476.5)"/><path d="M 431 483v 13h 13v -6.5a 6.5 6.5, 0, 0, 0, -6.5 -6.5" transform="rotate(90,437.5,489.5)"/><rect x="444" y="119" width="13" height="13" transform="rotate(0,450.5,125.5)"/><path d="M 444 132v 13h 13v -6.5a 6.5 6.5, 0, 0, 0, -6.5 -6.5" transform="rotate(90,450.5,138.5)"/><rect x="444" y="184" width="13" height="13" transform="rotate(0,450.5,190.5)"/><path d="M 444 210v 6.5a 6.5 6.5, 0, 0, 0, 6.5 6.5h 6.5v -6.5a 6.5 6.5, 0, 0, 0, -6.5 -6.5" transform="rotate(90,450.5,216.5)"/><rect x="444" y="249" width="13" height="13" transform="rotate(0,450.5,255.5)"/><path d="M 444 275v 13h 13v -6.5a 6.5 6.5, 0, 0, 0, -6.5 -6.5" transform="rotate(-90,450.5,281.5)"/><rect x="444" y="288" width="13" height="13" transform="rotate(0,450.5,294.5)"/><rect x="444" y="340" width="13" height="13" transform="rotate(0,450.5,346.5)"/><rect x="444" y="366" width="13" height="13" transform="rotate(0,450.5,372.5)"/><rect x="444" y="379" width="13" height="13" transform="rotate(0,450.5,385.5)"/><path d="M 444 405v 13h 13v -6.5a 6.5 6.5, 0, 0, 0, -6.5 -6.5" transform="rotate(90,450.5,411.5)"/><rect x="444" y="431" width="13" height="13" transform="rotate(0,450.5,437.5)"/><rect x="444" y="444" width="13" height="13" transform="rotate(0,450.5,450.5)"/><path d="M 444 457v 13h 13v -6.5a 6.5 6.5, 0, 0, 0, -6.5 -6.5" transform="rotate(90,450.5,463.5)"/><path d="M 457 119v 13h 13v -6.5a 6.5 6.5, 0, 0, 0, -6.5 -6.5" transform="rotate(90,463.5,125.5)"/><rect x="457" y="184" width="13" height="13" transform="rotate(0,463.5,190.5)"/><rect x="457" y="197" width="13" height="13" transform="rotate(0,463.5,203.5)"/><path d="M 457 223v 13h 13v -6.5a 6.5 6.5, 0, 0, 0, -6.5 -6.5" transform="rotate(-90,463.5,229.5)"/><rect x="457" y="236" width="13" height="13" transform="rotate(0,463.5,242.5)"/><rect x="457" y="249" width="13" height="13" transform="rotate(0,463.5,255.5)"/><path d="M 457 262v 13h 13v -6.5a 6.5 6.5, 0, 0, 0, -6.5 -6.5" transform="rotate(90,463.5,268.5)"/><rect x="457" y="288" width="13" height="13" transform="rotate(0,463.5,294.5)"/><rect x="457" y="301" width="13" height="13" transform="rotate(0,463.5,307.5)"/><rect x="457" y="314" width="13" height="13" transform="rotate(0,463.5,320.5)"/><rect x="457" y="327" width="13" height="13" transform="rotate(0,463.5,333.5)"/><rect x="457" y="340" width="13" height="13" transform="rotate(0,463.5,346.5)"/><rect x="457" y="353" width="13" height="13" transform="rotate(0,463.5,359.5)"/><rect x="457" y="366" width="13" height="13" transform="rotate(0,463.5,372.5)"/><rect x="457" y="379" width="13" height="13" transform="rotate(0,463.5,385.5)"/><rect x="457" y="392" width="13" height="13" transform="rotate(0,463.5,398.5)"/><path d="M 457 418v 13h 13v -6.5a 6.5 6.5, 0, 0, 0, -6.5 -6.5" transform="rotate(-90,463.5,424.5)"/><path d="M 457 483v 13h 13v -6.5a 6.5 6.5, 0, 0, 0, -6.5 -6.5" transform="rotate(-90,463.5,489.5)"/><path d="M 470 158v 6.5a 6.5 6.5, 0, 0, 0, 6.5 6.5h 6.5v -6.5a 6.5 6.5, 0, 0, 0, -6.5 -6.5" transform="rotate(90,476.5,164.5)"/><rect x="470" y="184" width="13" height="13" transform="rotate(0,476.5,190.5)"/><rect x="470" y="197" width="13" height="13" transform="rotate(0,476.5,203.5)"/><rect x="470" y="210" width="13" height="13" transform="rotate(0,476.5,216.5)"/><path d="M 470 223v 13h 13v -6.5a 6.5 6.5, 0, 0, 0, -6.5 -6.5" transform="rotate(90,476.5,229.5)"/><path d="M 470 249v 13h 13v -6.5a 6.5 6.5, 0, 0, 0, -6.5 -6.5" transform="rotate(90,476.5,255.5)"/><path d="M 470 275v 13h 13v -6.5a 6.5 6.5, 0, 0, 0, -6.5 -6.5" transform="rotate(-90,476.5,281.5)"/><rect x="470" y="288" width="13" height="13" transform="rotate(0,476.5,294.5)"/><rect x="470" y="301" width="13" height="13" transform="rotate(0,476.5,307.5)"/><rect x="470" y="314" width="13" height="13" transform="rotate(0,476.5,320.5)"/><rect x="470" y="366" width="13" height="13" transform="rotate(0,476.5,372.5)"/><rect x="470" y="379" width="13" height="13" transform="rotate(0,476.5,385.5)"/><rect x="470" y="392" width="13" height="13" transform="rotate(0,476.5,398.5)"/><rect x="470" y="405" width="13" height="13" transform="rotate(0,476.5,411.5)"/><rect x="470" y="418" width="13" height="13" transform="rotate(0,476.5,424.5)"/><rect x="470" y="431" width="13" height="13" transform="rotate(0,476.5,437.5)"/><rect x="470" y="483" width="13" height="13" transform="rotate(0,476.5,489.5)"/><path d="M 483 132v 6.5a 6.5 6.5, 0, 0, 0, 6.5 6.5h 6.5v -6.5a 6.5 6.5, 0, 0, 0, -6.5 -6.5" transform="rotate(90,489.5,138.5)"/><path d="M 483 197v 13h 13v -6.5a 6.5 6.5, 0, 0, 0, -6.5 -6.5" transform="rotate(90,489.5,203.5)"/><rect x="483" y="275" width="13" height="13" transform="rotate(0,489.5,281.5)"/><path d="M 483 288v 13h 13v -6.5a 6.5 6.5, 0, 0, 0, -6.5 -6.5" transform="rotate(90,489.5,294.5)"/><rect x="483" y="314" width="13" height="13" transform="rotate(0,489.5,320.5)"/><rect x="483" y="327" width="13" height="13" transform="rotate(0,489.5,333.5)"/><rect x="483" y="340" width="13" height="13" transform="rotate(0,489.5,346.5)"/><path d="M 483 353v 13h 13v -6.5a 6.5 6.5, 0, 0, 0, -6.5 -6.5" transform="rotate(90,489.5,359.5)"/><rect x="483" y="405" width="13" height="13" transform="rotate(0,489.5,411.5)"/><rect x="483" y="418" width="13" height="13" transform="rotate(0,489.5,424.5)"/><rect x="483" y="431" width="13" height="13" transform="rotate(0,489.5,437.5)"/><rect x="483" y="444" width="13" height="13" transform="rotate(0,489.5,450.5)"/><rect x="483" y="457" width="13" height="13" transform="rotate(0,489.5,463.5)"/><rect x="483" y="470" width="13" height="13" transform="rotate(0,489.5,476.5)"/><path d="M 483 483v 13h 13v -6.5a 6.5 6.5, 0, 0, 0, -6.5 -6.5" transform="rotate(90,489.5,489.5)"/></clipPath><clipPath id="clip-path-corners-square-color-0-0"><path clip-rule="evenodd" d="M 60.5 15a 45.5 45.5 0 1 0 0.1 0zm 0 13a 32.5 32.5 0 1 1 -0.1 0Z" transform="rotate(0,60.5,60.5)"/></clipPath><clipPath id="clip-path-corners-dot-color-0-0"><rect x="41" y="41" width="39" height="39" transform="rotate(0,60.5,60.5)"/></clipPath><clipPath id="clip-path-corners-square-color-1-0"><path clip-rule="evenodd" d="M 450.5 15a 45.5 45.5 0 1 0 0.1 0zm 0 13a 32.5 32.5 0 1 1 -0.1 0Z" transform="rotate(90,450.5,60.5)"/></clipPath><clipPath id="clip-path-corners-dot-color-1-0"><rect x="431" y="41" width="39" height="39" transform="rotate(90,450.5,60.5)"/></clipPath><clipPath id="clip-path-corners-square-color-0-1"><path clip-rule="evenodd" d="M 60.5 405a 45.5 45.5 0 1 0 0.1 0zm 0 13a 32.5 32.5 0 1 1 -0.1 0Z" transform="rotate(-90,60.5,450.5)"/></clipPath><clipPath id="clip-path-corners-dot-color-0-1"><rect x="41" y="431" width="39" height="39" transform="rotate(-90,60.5,450.5)"/></clipPath></defs><rect x="0" y="0" height="512" width="512" clip-path="url('#clip-path-background-color')" fill="transparent"/><rect x="0" y="0" height="512" width="512" clip-path="url('#clip-path-dot-color')" fill="#000000"/><rect x="15" y="15" height="91" width="91" clip-path="url('#clip-path-corners-square-color-0-0')" fill="#000000"/><rect x="41" y="41" height="39" width="39" clip-path="url('#clip-path-corners-dot-color-0-0')" fill="#000000"/><rect x="405" y="15" height="91" width="91" clip-path="url('#clip-path-corners-square-color-1-0')" fill="#000000"/><rect x="431" y="41" height="39" width="39" clip-path="url('#clip-path-corners-dot-color-1-0')" fill="#000000"/><rect x="15" y="405" height="91" width="91" clip-path="url('#clip-path-corners-square-color-0-1')" fill="#000000"/><rect x="41" y="431" height="39" width="39" clip-path="url('#clip-path-corners-dot-color-0-1')" fill="#000000"/></svg>