<svg width="264" height="264" viewBox="0 0 264 264" fill="none" xmlns="http://www.w3.org/2000/svg">
<g clip-path="url(#clip0_205_900)">
<path d="M264 0H0V264H264V0Z" fill="white"/>
<path d="M21.6 12H12V21.6H21.6V12Z" fill="black"/>
<path d="M21.6 21.6H12V31.2H21.6V21.6Z" fill="black"/>
<path d="M21.6 31.2H12V40.8H21.6V31.2Z" fill="black"/>
<path d="M21.6 40.8H12V50.4H21.6V40.8Z" fill="black"/>
<path d="M21.6 50.4H12V60H21.6V50.4Z" fill="black"/>
<path d="M21.6 60H12V69.6H21.6V60Z" fill="black"/>
<path d="M21.6 69.6H12V79.2H21.6V69.6Z" fill="black"/>
<path d="M21.6 88.8H12V98.4H21.6V88.8Z" fill="black"/>
<path d="M21.6 98.4H12V108H21.6V98.4Z" fill="black"/>
<path d="M21.6 184.8H12V194.4H21.6V184.8Z" fill="black"/>
<path d="M21.6 194.4H12V204H21.6V194.4Z" fill="black"/>
<path d="M21.6 204H12V213.6H21.6V204Z" fill="black"/>
<path d="M21.6 213.6H12V223.2H21.6V213.6Z" fill="black"/>
<path d="M21.6 223.2H12V232.8H21.6V223.2Z" fill="black"/>
<path d="M21.6 232.8H12V242.4H21.6V232.8Z" fill="black"/>
<path d="M21.6 242.4H12V252H21.6V242.4Z" fill="black"/>
<path d="M31.1996 12H21.5996V21.6H31.1996V12Z" fill="black"/>
<path d="M31.1996 69.6H21.5996V79.2H31.1996V69.6Z" fill="black"/>
<path d="M31.1996 88.8H21.5996V98.4H31.1996V88.8Z" fill="black"/>
<path d="M31.1996 117.6H21.5996V127.2H31.1996V117.6Z" fill="black"/>
<path d="M31.1996 146.4H21.5996V156H31.1996V146.4Z" fill="black"/>
<path d="M31.1996 156H21.5996V165.6H31.1996V156Z" fill="black"/>
<path d="M31.1996 165.6H21.5996V175.2H31.1996V165.6Z" fill="black"/>
<path d="M31.1996 184.8H21.5996V194.4H31.1996V184.8Z" fill="black"/>
<path d="M31.1996 242.4H21.5996V252H31.1996V242.4Z" fill="black"/>
<path d="M40.8002 12H31.2002V21.6H40.8002V12Z" fill="black"/>
<path d="M40.8002 31.2H31.2002V40.8H40.8002V31.2Z" fill="black"/>
<path d="M40.8002 40.8H31.2002V50.4H40.8002V40.8Z" fill="black"/>
<path d="M40.8002 50.4H31.2002V60H40.8002V50.4Z" fill="black"/>
<path d="M40.8002 69.6H31.2002V79.2H40.8002V69.6Z" fill="black"/>
<path d="M40.8002 88.8H31.2002V98.4H40.8002V88.8Z" fill="black"/>
<path d="M40.8002 108H31.2002V117.6H40.8002V108Z" fill="black"/>
<path d="M40.8002 127.2H31.2002V136.8H40.8002V127.2Z" fill="black"/>
<path d="M40.8002 136.8H31.2002V146.4H40.8002V136.8Z" fill="black"/>
<path d="M40.8002 146.4H31.2002V156H40.8002V146.4Z" fill="black"/>
<path d="M40.8002 156H31.2002V165.6H40.8002V156Z" fill="black"/>
<path d="M40.8002 165.6H31.2002V175.2H40.8002V165.6Z" fill="black"/>
<path d="M40.8002 184.8H31.2002V194.4H40.8002V184.8Z" fill="black"/>
<path d="M40.8002 204H31.2002V213.6H40.8002V204Z" fill="black"/>
<path d="M40.8002 213.6H31.2002V223.2H40.8002V213.6Z" fill="black"/>
<path d="M40.8002 223.2H31.2002V232.8H40.8002V223.2Z" fill="black"/>
<path d="M40.8002 242.4H31.2002V252H40.8002V242.4Z" fill="black"/>
<path d="M50.3998 12H40.7998V21.6H50.3998V12Z" fill="black"/>
<path d="M50.3998 31.2H40.7998V40.8H50.3998V31.2Z" fill="black"/>
<path d="M50.3998 40.8H40.7998V50.4H50.3998V40.8Z" fill="black"/>
<path d="M50.3998 50.4H40.7998V60H50.3998V50.4Z" fill="black"/>
<path d="M50.3998 69.6H40.7998V79.2H50.3998V69.6Z" fill="black"/>
<path d="M50.3998 88.8H40.7998V98.4H50.3998V88.8Z" fill="black"/>
<path d="M50.3998 136.8H40.7998V146.4H50.3998V136.8Z" fill="black"/>
<path d="M50.3998 146.4H40.7998V156H50.3998V146.4Z" fill="black"/>
<path d="M50.3998 165.6H40.7998V175.2H50.3998V165.6Z" fill="black"/>
<path d="M50.3998 184.8H40.7998V194.4H50.3998V184.8Z" fill="black"/>
<path d="M50.3998 204H40.7998V213.6H50.3998V204Z" fill="black"/>
<path d="M50.3998 213.6H40.7998V223.2H50.3998V213.6Z" fill="black"/>
<path d="M50.3998 223.2H40.7998V232.8H50.3998V223.2Z" fill="black"/>
<path d="M50.3998 242.4H40.7998V252H50.3998V242.4Z" fill="black"/>
<path d="M60.0004 12H50.4004V21.6H60.0004V12Z" fill="black"/>
<path d="M60.0004 31.2H50.4004V40.8H60.0004V31.2Z" fill="black"/>
<path d="M60.0004 40.8H50.4004V50.4H60.0004V40.8Z" fill="black"/>
<path d="M60.0004 50.4H50.4004V60H60.0004V50.4Z" fill="black"/>
<path d="M60.0004 69.6H50.4004V79.2H60.0004V69.6Z" fill="black"/>
<path d="M60.0004 88.8H50.4004V98.4H60.0004V88.8Z" fill="black"/>
<path d="M60.0004 98.4H50.4004V108H60.0004V98.4Z" fill="black"/>
<path d="M60.0004 108H50.4004V117.6H60.0004V108Z" fill="black"/>
<path d="M60.0004 127.2H50.4004V136.8H60.0004V127.2Z" fill="black"/>
<path d="M60.0004 136.8H50.4004V146.4H60.0004V136.8Z" fill="black"/>
<path d="M60.0004 146.4H50.4004V156H60.0004V146.4Z" fill="black"/>
<path d="M60.0004 184.8H50.4004V194.4H60.0004V184.8Z" fill="black"/>
<path d="M60.0004 204H50.4004V213.6H60.0004V204Z" fill="black"/>
<path d="M60.0004 213.6H50.4004V223.2H60.0004V213.6Z" fill="black"/>
<path d="M60.0004 223.2H50.4004V232.8H60.0004V223.2Z" fill="black"/>
<path d="M60.0004 242.4H50.4004V252H60.0004V242.4Z" fill="black"/>
<path d="M69.6 12H60V21.6H69.6V12Z" fill="black"/>
<path d="M69.6 69.6H60V79.2H69.6V69.6Z" fill="black"/>
<path d="M69.6 98.4H60V108H69.6V98.4Z" fill="black"/>
<path d="M69.6 127.2H60V136.8H69.6V127.2Z" fill="black"/>
<path d="M69.6 136.8H60V146.4H69.6V136.8Z" fill="black"/>
<path d="M69.6 156H60V165.6H69.6V156Z" fill="black"/>
<path d="M69.6 165.6H60V175.2H69.6V165.6Z" fill="black"/>
<path d="M69.6 184.8H60V194.4H69.6V184.8Z" fill="black"/>
<path d="M69.6 242.4H60V252H69.6V242.4Z" fill="black"/>
<path d="M79.1996 12H69.5996V21.6H79.1996V12Z" fill="black"/>
<path d="M79.1996 21.6H69.5996V31.2H79.1996V21.6Z" fill="black"/>
<path d="M79.1996 31.2H69.5996V40.8H79.1996V31.2Z" fill="black"/>
<path d="M79.1996 40.8H69.5996V50.4H79.1996V40.8Z" fill="black"/>
<path d="M79.1996 50.4H69.5996V60H79.1996V50.4Z" fill="black"/>
<path d="M79.1996 60H69.5996V69.6H79.1996V60Z" fill="black"/>
<path d="M79.1996 69.6H69.5996V79.2H79.1996V69.6Z" fill="black"/>
<path d="M79.1996 88.8H69.5996V98.4H79.1996V88.8Z" fill="black"/>
<path d="M79.1996 108H69.5996V117.6H79.1996V108Z" fill="black"/>
<path d="M79.1996 127.2H69.5996V136.8H79.1996V127.2Z" fill="black"/>
<path d="M79.1996 146.4H69.5996V156H79.1996V146.4Z" fill="black"/>
<path d="M79.1996 165.6H69.5996V175.2H79.1996V165.6Z" fill="black"/>
<path d="M79.1996 184.8H69.5996V194.4H79.1996V184.8Z" fill="black"/>
<path d="M79.1996 194.4H69.5996V204H79.1996V194.4Z" fill="black"/>
<path d="M79.1996 204H69.5996V213.6H79.1996V204Z" fill="black"/>
<path d="M79.1996 213.6H69.5996V223.2H79.1996V213.6Z" fill="black"/>
<path d="M79.1996 223.2H69.5996V232.8H79.1996V223.2Z" fill="black"/>
<path d="M79.1996 232.8H69.5996V242.4H79.1996V232.8Z" fill="black"/>
<path d="M79.1996 242.4H69.5996V252H79.1996V242.4Z" fill="black"/>
<path d="M88.8002 88.8H79.2002V98.4H88.8002V88.8Z" fill="black"/>
<path d="M88.8002 108H79.2002V117.6H88.8002V108Z" fill="black"/>
<path d="M88.8002 127.2H79.2002V136.8H88.8002V127.2Z" fill="black"/>
<path d="M88.8002 146.4H79.2002V156H88.8002V146.4Z" fill="black"/>
<path d="M88.8002 156H79.2002V165.6H88.8002V156Z" fill="black"/>
<path d="M88.8002 165.6H79.2002V175.2H88.8002V165.6Z" fill="black"/>
<path d="M98.3998 21.6H88.7998V31.2H98.3998V21.6Z" fill="black"/>
<path d="M98.3998 40.8H88.7998V50.4H98.3998V40.8Z" fill="black"/>
<path d="M98.3998 60H88.7998V69.6H98.3998V60Z" fill="black"/>
<path d="M98.3998 69.6H88.7998V79.2H98.3998V69.6Z" fill="black"/>
<path d="M98.3998 88.8H88.7998V98.4H98.3998V88.8Z" fill="black"/>
<path d="M98.3998 98.4H88.7998V108H98.3998V98.4Z" fill="black"/>
<path d="M98.3998 108H88.7998V117.6H98.3998V108Z" fill="black"/>
<path d="M98.3998 117.6H88.7998V127.2H98.3998V117.6Z" fill="black"/>
<path d="M98.3998 127.2H88.7998V136.8H98.3998V127.2Z" fill="black"/>
<path d="M98.3998 136.8H88.7998V146.4H98.3998V136.8Z" fill="black"/>
<path d="M98.3998 146.4H88.7998V156H98.3998V146.4Z" fill="black"/>
<path d="M98.3998 156H88.7998V165.6H98.3998V156Z" fill="black"/>
<path d="M98.3998 165.6H88.7998V175.2H98.3998V165.6Z" fill="black"/>
<path d="M98.3998 175.2H88.7998V184.8H98.3998V175.2Z" fill="black"/>
<path d="M98.3998 184.8H88.7998V194.4H98.3998V184.8Z" fill="black"/>
<path d="M98.3998 204H88.7998V213.6H98.3998V204Z" fill="black"/>
<path d="M98.3998 213.6H88.7998V223.2H98.3998V213.6Z" fill="black"/>
<path d="M98.3998 223.2H88.7998V232.8H98.3998V223.2Z" fill="black"/>
<path d="M98.3998 232.8H88.7998V242.4H98.3998V232.8Z" fill="black"/>
<path d="M98.3998 242.4H88.7998V252H98.3998V242.4Z" fill="black"/>
<path d="M108 12H98.4004V21.6H108V12Z" fill="black"/>
<path d="M108 21.6H98.4004V31.2H108V21.6Z" fill="black"/>
<path d="M108 31.2H98.4004V40.8H108V31.2Z" fill="black"/>
<path d="M108 40.8H98.4004V50.4H108V40.8Z" fill="black"/>
<path d="M108 88.8H98.4004V98.4H108V88.8Z" fill="black"/>
<path d="M108 98.4H98.4004V108H108V98.4Z" fill="black"/>
<path d="M108 108H98.4004V117.6H108V108Z" fill="black"/>
<path d="M108 117.6H98.4004V127.2H108V117.6Z" fill="black"/>
<path d="M108 127.2H98.4004V136.8H108V127.2Z" fill="black"/>
<path d="M108 156H98.4004V165.6H108V156Z" fill="black"/>
<path d="M108 194.4H98.4004V204H108V194.4Z" fill="black"/>
<path d="M108 232.8H98.4004V242.4H108V232.8Z" fill="black"/>
<path d="M117.6 31.2H108V40.8H117.6V31.2Z" fill="black"/>
<path d="M117.6 50.4H108V60H117.6V50.4Z" fill="black"/>
<path d="M117.6 60H108V69.6H117.6V60Z" fill="black"/>
<path d="M117.6 69.6H108V79.2H117.6V69.6Z" fill="black"/>
<path d="M117.6 88.8H108V98.4H117.6V88.8Z" fill="black"/>
<path d="M117.6 117.6H108V127.2H117.6V117.6Z" fill="black"/>
<path d="M117.6 136.8H108V146.4H117.6V136.8Z" fill="black"/>
<path d="M117.6 146.4H108V156H117.6V146.4Z" fill="black"/>
<path d="M117.6 156H108V165.6H117.6V156Z" fill="black"/>
<path d="M117.6 165.6H108V175.2H117.6V165.6Z" fill="black"/>
<path d="M117.6 184.8H108V194.4H117.6V184.8Z" fill="black"/>
<path d="M117.6 204H108V213.6H117.6V204Z" fill="black"/>
<path d="M117.6 213.6H108V223.2H117.6V213.6Z" fill="black"/>
<path d="M117.6 232.8H108V242.4H117.6V232.8Z" fill="black"/>
<path d="M127.2 21.6H117.6V31.2H127.2V21.6Z" fill="black"/>
<path d="M127.2 31.2H117.6V40.8H127.2V31.2Z" fill="black"/>
<path d="M127.2 40.8H117.6V50.4H127.2V40.8Z" fill="black"/>
<path d="M127.2 108H117.6V117.6H127.2V108Z" fill="black"/>
<path d="M127.2 117.6H117.6V127.2H127.2V117.6Z" fill="black"/>
<path d="M127.2 127.2H117.6V136.8H127.2V127.2Z" fill="black"/>
<path d="M127.2 184.8H117.6V194.4H127.2V184.8Z" fill="black"/>
<path d="M127.2 194.4H117.6V204H127.2V194.4Z" fill="black"/>
<path d="M127.2 204H117.6V213.6H127.2V204Z" fill="black"/>
<path d="M136.8 21.6H127.2V31.2H136.8V21.6Z" fill="black"/>
<path d="M136.8 50.4H127.2V60H136.8V50.4Z" fill="black"/>
<path d="M136.8 69.6H127.2V79.2H136.8V69.6Z" fill="black"/>
<path d="M136.8 79.2H127.2V88.8H136.8V79.2Z" fill="black"/>
<path d="M136.8 88.8H127.2V98.4H136.8V88.8Z" fill="black"/>
<path d="M136.8 108H127.2V117.6H136.8V108Z" fill="black"/>
<path d="M136.8 136.8H127.2V146.4H136.8V136.8Z" fill="black"/>
<path d="M136.8 156H127.2V165.6H136.8V156Z" fill="black"/>
<path d="M136.8 165.6H127.2V175.2H136.8V165.6Z" fill="black"/>
<path d="M136.8 184.8H127.2V194.4H136.8V184.8Z" fill="black"/>
<path d="M136.8 213.6H127.2V223.2H136.8V213.6Z" fill="black"/>
<path d="M136.8 232.8H127.2V242.4H136.8V232.8Z" fill="black"/>
<path d="M136.8 242.4H127.2V252H136.8V242.4Z" fill="black"/>
<path d="M146.4 40.8H136.8V50.4H146.4V40.8Z" fill="black"/>
<path d="M146.4 88.8H136.8V98.4H146.4V88.8Z" fill="black"/>
<path d="M146.4 98.4H136.8V108H146.4V98.4Z" fill="black"/>
<path d="M146.4 108H136.8V117.6H146.4V108Z" fill="black"/>
<path d="M146.4 127.2H136.8V136.8H146.4V127.2Z" fill="black"/>
<path d="M146.4 165.6H136.8V175.2H146.4V165.6Z" fill="black"/>
<path d="M146.4 213.6H136.8V223.2H146.4V213.6Z" fill="black"/>
<path d="M146.4 223.2H136.8V232.8H146.4V223.2Z" fill="black"/>
<path d="M146.4 232.8H136.8V242.4H146.4V232.8Z" fill="black"/>
<path d="M156 21.6H146.4V31.2H156V21.6Z" fill="black"/>
<path d="M156 40.8H146.4V50.4H156V40.8Z" fill="black"/>
<path d="M156 50.4H146.4V60H156V50.4Z" fill="black"/>
<path d="M156 60H146.4V69.6H156V60Z" fill="black"/>
<path d="M156 69.6H146.4V79.2H156V69.6Z" fill="black"/>
<path d="M156 108H146.4V117.6H156V108Z" fill="black"/>
<path d="M156 127.2H146.4V136.8H156V127.2Z" fill="black"/>
<path d="M156 146.4H146.4V156H156V146.4Z" fill="black"/>
<path d="M156 165.6H146.4V175.2H156V165.6Z" fill="black"/>
<path d="M156 184.8H146.4V194.4H156V184.8Z" fill="black"/>
<path d="M156 194.4H146.4V204H156V194.4Z" fill="black"/>
<path d="M156 223.2H146.4V232.8H156V223.2Z" fill="black"/>
<path d="M156 242.4H146.4V252H156V242.4Z" fill="black"/>
<path d="M165.6 21.6H156V31.2H165.6V21.6Z" fill="black"/>
<path d="M165.6 31.2H156V40.8H165.6V31.2Z" fill="black"/>
<path d="M165.6 40.8H156V50.4H165.6V40.8Z" fill="black"/>
<path d="M165.6 60H156V69.6H165.6V60Z" fill="black"/>
<path d="M165.6 79.2H156V88.8H165.6V79.2Z" fill="black"/>
<path d="M165.6 88.8H156V98.4H165.6V88.8Z" fill="black"/>
<path d="M165.6 108H156V117.6H165.6V108Z" fill="black"/>
<path d="M165.6 127.2H156V136.8H165.6V127.2Z" fill="black"/>
<path d="M165.6 146.4H156V156H165.6V146.4Z" fill="black"/>
<path d="M165.6 175.2H156V184.8H165.6V175.2Z" fill="black"/>
<path d="M165.6 204H156V213.6H165.6V204Z" fill="black"/>
<path d="M165.6 213.6H156V223.2H165.6V213.6Z" fill="black"/>
<path d="M165.6 232.8H156V242.4H165.6V232.8Z" fill="black"/>
<path d="M175.2 12H165.6V21.6H175.2V12Z" fill="black"/>
<path d="M175.2 21.6H165.6V31.2H175.2V21.6Z" fill="black"/>
<path d="M175.2 50.4H165.6V60H175.2V50.4Z" fill="black"/>
<path d="M175.2 69.6H165.6V79.2H175.2V69.6Z" fill="black"/>
<path d="M175.2 79.2H165.6V88.8H175.2V79.2Z" fill="black"/>
<path d="M175.2 88.8H165.6V98.4H175.2V88.8Z" fill="black"/>
<path d="M175.2 98.4H165.6V108H175.2V98.4Z" fill="black"/>
<path d="M175.2 108H165.6V117.6H175.2V108Z" fill="black"/>
<path d="M175.2 127.2H165.6V136.8H175.2V127.2Z" fill="black"/>
<path d="M175.2 136.8H165.6V146.4H175.2V136.8Z" fill="black"/>
<path d="M175.2 156H165.6V165.6H175.2V156Z" fill="black"/>
<path d="M175.2 165.6H165.6V175.2H175.2V165.6Z" fill="black"/>
<path d="M175.2 175.2H165.6V184.8H175.2V175.2Z" fill="black"/>
<path d="M175.2 184.8H165.6V194.4H175.2V184.8Z" fill="black"/>
<path d="M175.2 194.4H165.6V204H175.2V194.4Z" fill="black"/>
<path d="M175.2 204H165.6V213.6H175.2V204Z" fill="black"/>
<path d="M175.2 213.6H165.6V223.2H175.2V213.6Z" fill="black"/>
<path d="M175.2 223.2H165.6V232.8H175.2V223.2Z" fill="black"/>
<path d="M175.2 232.8H165.6V242.4H175.2V232.8Z" fill="black"/>
<path d="M184.8 88.8H175.2V98.4H184.8V88.8Z" fill="black"/>
<path d="M184.8 108H175.2V117.6H184.8V108Z" fill="black"/>
<path d="M184.8 117.6H175.2V127.2H184.8V117.6Z" fill="black"/>
<path d="M184.8 127.2H175.2V136.8H184.8V127.2Z" fill="black"/>
<path d="M184.8 165.6H175.2V175.2H184.8V165.6Z" fill="black"/>
<path d="M184.8 204H175.2V213.6H184.8V204Z" fill="black"/>
<path d="M184.8 213.6H175.2V223.2H184.8V213.6Z" fill="black"/>
<path d="M184.8 242.4H175.2V252H184.8V242.4Z" fill="black"/>
<path d="M194.4 12H184.8V21.6H194.4V12Z" fill="black"/>
<path d="M194.4 21.6H184.8V31.2H194.4V21.6Z" fill="black"/>
<path d="M194.4 31.2H184.8V40.8H194.4V31.2Z" fill="black"/>
<path d="M194.4 40.8H184.8V50.4H194.4V40.8Z" fill="black"/>
<path d="M194.4 50.4H184.8V60H194.4V50.4Z" fill="black"/>
<path d="M194.4 60H184.8V69.6H194.4V60Z" fill="black"/>
<path d="M194.4 69.6H184.8V79.2H194.4V69.6Z" fill="black"/>
<path d="M194.4 127.2H184.8V136.8H194.4V127.2Z" fill="black"/>
<path d="M194.4 156H184.8V165.6H194.4V156Z" fill="black"/>
<path d="M194.4 165.6H184.8V175.2H194.4V165.6Z" fill="black"/>
<path d="M194.4 184.8H184.8V194.4H194.4V184.8Z" fill="black"/>
<path d="M194.4 204H184.8V213.6H194.4V204Z" fill="black"/>
<path d="M194.4 213.6H184.8V223.2H194.4V213.6Z" fill="black"/>
<path d="M194.4 232.8H184.8V242.4H194.4V232.8Z" fill="black"/>
<path d="M194.4 242.4H184.8V252H194.4V242.4Z" fill="black"/>
<path d="M204 12H194.4V21.6H204V12Z" fill="black"/>
<path d="M204 69.6H194.4V79.2H204V69.6Z" fill="black"/>
<path d="M204 88.8H194.4V98.4H204V88.8Z" fill="black"/>
<path d="M204 98.4H194.4V108H204V98.4Z" fill="black"/>
<path d="M204 136.8H194.4V146.4H204V136.8Z" fill="black"/>
<path d="M204 146.4H194.4V156H204V146.4Z" fill="black"/>
<path d="M204 156H194.4V165.6H204V156Z" fill="black"/>
<path d="M204 165.6H194.4V175.2H204V165.6Z" fill="black"/>
<path d="M204 204H194.4V213.6H204V204Z" fill="black"/>
<path d="M204 232.8H194.4V242.4H204V232.8Z" fill="black"/>
<path d="M204 242.4H194.4V252H204V242.4Z" fill="black"/>
<path d="M213.6 12H204V21.6H213.6V12Z" fill="black"/>
<path d="M213.6 31.2H204V40.8H213.6V31.2Z" fill="black"/>
<path d="M213.6 40.8H204V50.4H213.6V40.8Z" fill="black"/>
<path d="M213.6 50.4H204V60H213.6V50.4Z" fill="black"/>
<path d="M213.6 69.6H204V79.2H213.6V69.6Z" fill="black"/>
<path d="M213.6 108H204V117.6H213.6V108Z" fill="black"/>
<path d="M213.6 117.6H204V127.2H213.6V117.6Z" fill="black"/>
<path d="M213.6 127.2H204V136.8H213.6V127.2Z" fill="black"/>
<path d="M213.6 146.4H204V156H213.6V146.4Z" fill="black"/>
<path d="M213.6 156H204V165.6H213.6V156Z" fill="black"/>
<path d="M213.6 165.6H204V175.2H213.6V165.6Z" fill="black"/>
<path d="M213.6 175.2H204V184.8H213.6V175.2Z" fill="black"/>
<path d="M213.6 184.8H204V194.4H213.6V184.8Z" fill="black"/>
<path d="M213.6 194.4H204V204H213.6V194.4Z" fill="black"/>
<path d="M213.6 204H204V213.6H213.6V204Z" fill="black"/>
<path d="M213.6 213.6H204V223.2H213.6V213.6Z" fill="black"/>
<path d="M213.6 232.8H204V242.4H213.6V232.8Z" fill="black"/>
<path d="M213.6 242.4H204V252H213.6V242.4Z" fill="black"/>
<path d="M223.2 12H213.6V21.6H223.2V12Z" fill="black"/>
<path d="M223.2 31.2H213.6V40.8H223.2V31.2Z" fill="black"/>
<path d="M223.2 40.8H213.6V50.4H223.2V40.8Z" fill="black"/>
<path d="M223.2 50.4H213.6V60H223.2V50.4Z" fill="black"/>
<path d="M223.2 69.6H213.6V79.2H223.2V69.6Z" fill="black"/>
<path d="M223.2 88.8H213.6V98.4H223.2V88.8Z" fill="black"/>
<path d="M223.2 108H213.6V117.6H223.2V108Z" fill="black"/>
<path d="M223.2 136.8H213.6V146.4H223.2V136.8Z" fill="black"/>
<path d="M223.2 146.4H213.6V156H223.2V146.4Z" fill="black"/>
<path d="M223.2 175.2H213.6V184.8H223.2V175.2Z" fill="black"/>
<path d="M223.2 194.4H213.6V204H223.2V194.4Z" fill="black"/>
<path d="M223.2 213.6H213.6V223.2H223.2V213.6Z" fill="black"/>
<path d="M223.2 223.2H213.6V232.8H223.2V223.2Z" fill="black"/>
<path d="M223.2 232.8H213.6V242.4H223.2V232.8Z" fill="black"/>
<path d="M223.2 242.4H213.6V252H223.2V242.4Z" fill="black"/>
<path d="M232.8 12H223.2V21.6H232.8V12Z" fill="black"/>
<path d="M232.8 31.2H223.2V40.8H232.8V31.2Z" fill="black"/>
<path d="M232.8 40.8H223.2V50.4H232.8V40.8Z" fill="black"/>
<path d="M232.8 50.4H223.2V60H232.8V50.4Z" fill="black"/>
<path d="M232.8 69.6H223.2V79.2H232.8V69.6Z" fill="black"/>
<path d="M232.8 127.2H223.2V136.8H232.8V127.2Z" fill="black"/>
<path d="M232.8 165.6H223.2V175.2H232.8V165.6Z" fill="black"/>
<path d="M232.8 184.8H223.2V194.4H232.8V184.8Z" fill="black"/>
<path d="M232.8 204H223.2V213.6H232.8V204Z" fill="black"/>
<path d="M232.8 213.6H223.2V223.2H232.8V213.6Z" fill="black"/>
<path d="M232.8 223.2H223.2V232.8H232.8V223.2Z" fill="black"/>
<path d="M232.8 242.4H223.2V252H232.8V242.4Z" fill="black"/>
<path d="M242.4 12H232.8V21.6H242.4V12Z" fill="black"/>
<path d="M242.4 69.6H232.8V79.2H242.4V69.6Z" fill="black"/>
<path d="M242.4 88.8H232.8V98.4H242.4V88.8Z" fill="black"/>
<path d="M242.4 98.4H232.8V108H242.4V98.4Z" fill="black"/>
<path d="M242.4 108H232.8V117.6H242.4V108Z" fill="black"/>
<path d="M242.4 127.2H232.8V136.8H242.4V127.2Z" fill="black"/>
<path d="M242.4 136.8H232.8V146.4H242.4V136.8Z" fill="black"/>
<path d="M242.4 146.4H232.8V156H242.4V146.4Z" fill="black"/>
<path d="M242.4 184.8H232.8V194.4H242.4V184.8Z" fill="black"/>
<path d="M242.4 204H232.8V213.6H242.4V204Z" fill="black"/>
<path d="M242.4 213.6H232.8V223.2H242.4V213.6Z" fill="black"/>
<path d="M242.4 242.4H232.8V252H242.4V242.4Z" fill="black"/>
<path d="M252 12H242.4V21.6H252V12Z" fill="black"/>
<path d="M252 21.6H242.4V31.2H252V21.6Z" fill="black"/>
<path d="M252 31.2H242.4V40.8H252V31.2Z" fill="black"/>
<path d="M252 40.8H242.4V50.4H252V40.8Z" fill="black"/>
<path d="M252 50.4H242.4V60H252V50.4Z" fill="black"/>
<path d="M252 60H242.4V69.6H252V60Z" fill="black"/>
<path d="M252 69.6H242.4V79.2H252V69.6Z" fill="black"/>
<path d="M252 108H242.4V117.6H252V108Z" fill="black"/>
<path d="M252 117.6H242.4V127.2H252V117.6Z" fill="black"/>
<path d="M252 127.2H242.4V136.8H252V127.2Z" fill="black"/>
<path d="M252 146.4H242.4V156H252V146.4Z" fill="black"/>
<path d="M252 156H242.4V165.6H252V156Z" fill="black"/>
<path d="M252 184.8H242.4V194.4H252V184.8Z" fill="black"/>
<path d="M252 204H242.4V213.6H252V204Z" fill="black"/>
<path d="M252 213.6H242.4V223.2H252V213.6Z" fill="black"/>
<path d="M252 223.2H242.4V232.8H252V223.2Z" fill="black"/>
<path d="M252 232.8H242.4V242.4H252V232.8Z" fill="black"/>
<path d="M252 242.4H242.4V252H252V242.4Z" fill="black"/>
</g>
<defs>
<clipPath id="clip0_205_900">
<rect width="264" height="264" fill="white"/>
</clipPath>
</defs>
</svg>
